<svg width="520" height="372" viewBox="0 0 520 372" fill="none" xmlns="http://www.w3.org/2000/svg">
<g filter="url(#filter0_d_3_3)">
<path d="M252.564 357.305L18.928 226.238C11.492 222.277 5.109 215.762 12.363 211.505L246.844 83.1773C250.367 81.1043 255.71 79.747 259.285 81.7213L504.543 216.848C511.979 220.945 513.318 232.395 505.843 236.504L283.4 357.096C278.724 359.675 273.42 361.051 268.011 361.088C262.603 361.125 257.279 359.821 252.564 357.305V357.305Z" fill="#007F68"/>
<path style="mix-blend-mode:multiply" opacity="0.91" d="M62.946 242.76L105.846 219.612C96.954 213.899 90.415 212.381 82.706 205.323L40.833 227.571C48.412 232.334 55.9 237.319 62.946 242.76Z" fill="url(#paint0_linear_3_3)"/>
<path style="mix-blend-mode:multiply" opacity="0.91" d="M321.542 280.432L368.342 255.211C358.657 249.041 351.533 247.338 343.135 239.639L297.492 263.947C305.708 269.154 313.82 274.571 321.542 280.432Z" fill="url(#paint1_linear_3_3)"/>
<path d="M69.108 140.838C71.4432 140.704 73.7766 141.128 75.894 142.072C78.0636 143.236 79.7543 145.063 80.691 147.255C81.731 149.34 82.199 152.314 84.37 153.659C85.2168 154.09 85.9501 154.698 86.515 155.436C87.0411 156.145 87.3766 156.965 87.4921 157.825C87.6077 158.686 87.4998 159.56 87.178 160.371C86.216 162.198 82.199 163.321 80.353 162.987" fill="#8FDB5E"/>
<path d="M67.34 141.061C66.6524 141.121 65.9703 141.228 65.299 141.381C63.0415 142.032 60.9889 143.203 59.324 144.79C57.6591 146.377 56.4337 148.33 55.757 150.475C55.0743 153.019 55.0431 155.68 55.666 158.237C56.186 160.297 57.473 163.863 60.125 164.024C63.7 164.234 64.87 161.05 66.001 158.447C67.132 155.843 68.315 152.968 71.201 151.931C72.6101 151.427 74.144 151.325 75.6133 151.639C77.0827 151.952 78.4231 152.667 79.469 153.696L67.34 141.061Z" fill="#1E8C0E"/>
<path d="M83.694 154.868C81.536 152.215 79.794 149.316 77.649 146.613C76.4716 144.842 75.0605 143.22 73.45 141.789C68.471 139.493 62.205 141.603 58.539 145.614C59.046 145.762 59.748 145.786 60.138 145.922C62.3422 146.727 64.2995 148.042 65.832 149.747C68.029 152.055 69.732 154.893 71.695 157.348C74.854 161.334 79.053 164.616 84.474 162.284C87.945 160.717 85.228 156.744 83.694 154.868Z" fill="#8FDB5E"/>
<path d="M101.257 120.701C101.257 120.701 112.463 119.862 112.255 136.742C112.047 153.622 95.355 142.504 98.969 132.361" fill="#1E8C0E"/>
<path d="M99.645 137.26C99.528 132.139 105.586 128.401 110.708 127.747C109.902 124.797 106.808 120.072 100.568 120.232C92.898 120.417 87.139 127.821 85.839 136.544C84.539 145.268 91.481 150.796 91.481 150.796L95.186 153.795C102.011 151.253 99.476 141.937 99.645 137.26Z" fill="#8FDB5E"/>
<path d="M130.182 149.315C130.018 146.126 129.131 143.007 127.582 140.172C126.869 138.816 125.843 137.63 124.581 136.703C123.318 135.776 121.851 135.131 120.289 134.817L113.971 146.354C113.971 146.354 123.383 130.733 119.535 142.763C115.687 154.794 128.362 168.269 130.091 150.34C130.143 149.982 130.156 149.649 130.182 149.315Z" fill="#1E8C0E"/>
<path d="M85.566 179.349C85.566 179.349 77.129 184.556 79.469 196.747C80.2974 200.965 81.5512 205.097 83.213 209.087C84.851 213.048 86.047 218.168 90.259 220.414C94.159 222.499 100.256 222.882 104.208 220.587C107.822 218.489 109.122 213.726 110.448 210.185C112.03 205.824 113.115 201.315 113.685 196.735C117.676 167.281 85.566 179.349 85.566 179.349Z" fill="#68E1FD"/>
<path d="M96.941 185.346C103.74 185.346 109.252 183.457 109.252 181.126C109.252 178.795 103.74 176.906 96.941 176.906C90.1418 176.906 84.63 178.795 84.63 181.126C84.63 183.457 90.1418 185.346 96.941 185.346Z" fill="#68E1FD"/>
<path d="M97.929 158.619C96.213 154.683 93.002 151.376 91.988 147.156C91.3508 144.298 91.6068 141.325 92.7245 138.602C93.8423 135.88 95.7731 133.526 98.28 131.831C99.216 131.189 98.28 129.684 97.357 130.338C89.492 135.767 87.971 145.021 92.547 152.906C93.964 155.374 95.823 157.694 96.694 160.396C97.825 163.913 96.564 166.455 94.822 169.034C94.92 166.425 93.9403 163.883 92.092 161.951C90.051 160.149 87.035 159.853 84.5 159.039C79.599 157.472 75.283 154.806 74.451 149.624C74.269 148.526 72.527 148.995 72.696 150.081C73.372 154.325 76.31 157.348 80.262 159.273C82.6302 160.265 85.0721 161.09 87.568 161.741C88.6478 162.136 89.6313 162.736 90.4584 163.504C91.2855 164.272 91.9387 165.192 92.378 166.208C93.535 168.75 92.755 170.49 92.092 172.957C91.247 176.153 89.895 178.905 92.222 181.94C92.898 182.829 94.484 181.94 93.795 181.064C90.103 176.24 96.005 171.637 97.981 167.491C98.6431 166.095 98.9812 164.581 98.9722 163.05C98.9632 161.519 98.6075 160.008 97.929 158.619V158.619Z" fill="#1E8C0E"/>
<path d="M120.627 148.032C112.827 146.737 107.549 152.45 108.017 159.594C108.178 161.387 108.526 163.16 109.057 164.888C109.408 166.122 110.357 168.244 110.084 169.478C109.82 170.581 109.278 171.607 108.503 172.467C107.729 173.327 106.745 173.995 105.638 174.413C102.258 175.931 100.087 177.745 99.138 181.262C99.079 181.481 99.1131 181.714 99.233 181.91C99.3529 182.105 99.5491 182.249 99.7792 182.308C100.009 182.368 100.255 182.34 100.463 182.23C100.672 182.119 100.826 181.936 100.893 181.718C102.687 175.462 111.891 176.363 111.956 169.478C111.956 166.122 110.11 162.963 109.889 159.606C109.512 153.721 113.555 148.6 120.198 149.735C121.29 149.895 121.784 148.23 120.627 148.032Z" fill="#1E8C0E"/>
<path d="M127.582 140.16C124.566 134.879 119.093 133.645 113.724 135.224C112.982 135.51 112.261 135.844 111.566 136.224C98.059 145.725 107.666 167.158 109.733 166.998C116.623 166.455 115.908 162.617 118.209 151.87C118.593 149.438 119.895 147.221 121.873 145.632C123.851 144.043 126.369 143.19 128.96 143.232C128.597 142.172 128.136 141.144 127.582 140.16V140.16Z" fill="#8FDB5E"/>
<path d="M124.618 136.643C122.363 136.308 120.054 136.631 117.997 137.57C115.94 138.508 114.232 140.019 113.1 141.9C108.16 149.735 109.304 158.866 109.954 167.516C110.032 168.614 111.865 168.626 111.774 167.516C111.293 161.26 110.37 155.078 112.164 148.933C113.048 145.922 114.101 142.578 116.636 140.419C118.003 139.27 119.694 138.527 121.501 138.282C123.308 138.036 125.151 138.299 126.802 139.037L126.113 138.149C125.619 137.667 125.112 137.174 124.618 136.643Z" fill="#1E8C0E"/>
<path opacity="0.3" d="M210.47 92.0122V246.61L265.005 280.827L326.716 247.24V87.6194" fill="black"/>
<path opacity="0.3" d="M265.005 121.108V280.827L326.716 247.24V87.6194L265.005 121.108Z" fill="black"/>
<path opacity="0.3" d="M210.47 92.0122L272.597 57.9683L326.716 87.6194L265.005 121.108L210.47 92.0122Z" fill="black"/>
<path style="mix-blend-mode:multiply" opacity="0.63" d="M211.354 249.152L269.1 277.471L210.236 312.514H208.702C184.873 300.039 168.74 290.785 151.801 280.852C173.706 269.783 191.1 262.701 211.354 249.152Z" fill="url(#paint2_linear_3_3)"/>
<path opacity="0.18" d="M210.47 92.0122V246.61L265.005 280.827L326.716 247.24V87.6194" fill="black"/>
<path d="M210.47 92.0122V246.61L265.005 280.827L326.716 247.24V87.6194" fill="#68E1FD"/>
<path d="M265.005 121.108V280.827L326.716 247.24V87.6194L265.005 121.108Z" fill="#68E1FD"/>
<path opacity="0.12" d="M210.47 92.0122V246.61L265.005 280.827L326.716 247.24V87.6194" fill="black"/>
<path d="M265.005 121.108V280.827L326.716 247.24V87.6194L265.005 121.108Z" fill="#68E1FD"/>
<path opacity="0.31" d="M265.005 121.108V280.827L326.716 247.24V87.6194L265.005 121.108Z" fill="black"/>
<path d="M210.47 92.0122L272.597 57.9683L326.716 87.6194L265.005 121.108L210.47 92.0122Z" fill="#68E1FD"/>
<path d="M322.556 40.3356L214.344 63.1631V93.4312L256.594 117.53L322.556 80.8329V40.3356Z" fill="#70BC0D"/>
<path d="M322.933 40.2862L255.97 84.004L214.344 63.1631L245.726 46.9247" fill="#67A00D"/>
<path d="M206.505 56.9565L246.415 78.8216C258.604 76.9707 270.341 73.0455 281.06 67.235C298.922 57.5611 323.518 39.5705 323.518 39.5705L286.819 19.4206L234.936 48.5041C234.936 48.5041 220.584 55.2043 206.505 56.9565Z" fill="#91D12C"/>
<path d="M211.029 57.5858L247.104 77.3285C258.648 74.9102 269.762 70.916 280.098 65.4705C296.257 56.7714 318.5 40.5083 318.5 40.5083L285.324 22.2709L238.407 48.5658C229.634 52.4619 220.459 55.4847 211.029 57.5858V57.5858Z" stroke="#2E3192" stroke-width="1.015" stroke-miterlimit="10"/>
<path d="M255.97 84.004V117.53L322.556 80.8328L323.518 39.5829L255.97 84.004Z" fill="#618E0C"/>
<path d="M259.545 41.8163L284.245 27.256L311.233 40.8291C311.233 40.8291 283.062 57.0182 280.917 58.104C278.772 59.1899 255.346 71.4921 245.076 70.9738L221.559 58.6346L259.545 41.8163Z" fill="#8CC127"/>
<path d="M267.631 62.1513C279.384 62.1513 288.912 57.7925 288.912 52.4157C288.912 47.0388 279.384 42.68 267.631 42.68C255.878 42.68 246.35 47.0388 246.35 52.4157C246.35 57.7925 255.878 62.1513 267.631 62.1513Z" fill="#C7E58F"/>
<path d="M214.344 72.7383C221.381 76.2591 228.367 79.8251 235.3 83.4364C242.233 87.0477 249.201 90.6795 256.204 94.332H255.593L272.22 83.9794L288.951 73.7131L305.708 63.558C311.298 60.1852 316.931 56.8454 322.608 53.5385C317.148 57.1004 311.666 60.6336 306.163 64.1379L289.627 74.6016L273 85.0159L256.321 95.2944L256.022 95.4795L255.71 95.3191C248.777 91.6338 241.869 87.9032 234.988 84.1274C228.107 80.3516 221.225 76.5553 214.344 72.7383Z" fill="#55823D"/>
<path d="M214.344 77.4149C221.381 80.9768 228.367 84.5634 235.3 88.1747C242.233 91.786 249.201 95.4178 256.204 99.0702H255.593L272.22 88.7176L288.912 78.4637L305.669 68.3086C311.259 64.9358 316.892 61.596 322.569 58.2891C317.109 61.851 311.627 65.3842 306.124 68.8885L289.588 79.3522L273 89.7541L256.321 100.033L256.022 100.218L255.71 100.057C248.777 96.372 241.869 92.6415 234.988 88.8657C228.107 85.0899 221.225 81.273 214.344 77.4149Z" fill="#55823D"/>
<path d="M214.5 83.5845C221.529 87.1135 228.531 90.6837 235.508 94.295C242.485 97.9062 249.453 101.538 256.412 105.19H255.801L272.428 94.8379L289.12 84.584L305.877 74.4288C311.467 71.0561 317.1 67.7163 322.777 64.4094C317.326 67.9548 311.831 71.4674 306.293 74.9471L289.757 85.4107L273.143 95.7757L256.464 106.054L256.165 106.239L255.853 106.079C248.92 102.394 242.012 98.663 235.131 94.8872C228.25 91.1114 221.373 87.3439 214.5 83.5845Z" fill="#55823D"/>
<path d="M214.344 89.4703C221.381 92.9993 228.367 96.5695 235.3 100.181C242.233 103.792 249.201 107.424 256.204 111.076H255.593L272.22 100.724L288.912 90.4698L305.669 80.3146C311.259 76.9419 316.892 73.6021 322.569 70.2952C317.109 73.8571 311.627 77.3902 306.124 80.8946L289.588 91.3582L273 101.748L256.321 112.026L256.022 112.211L255.71 112.051C248.777 108.366 241.869 104.635 234.988 100.859C228.107 97.0836 221.225 93.2872 214.344 89.4703Z" fill="#55823D"/>
<path d="M239.356 46.0239L281.06 67.2474V103.92L296.764 95.0476V57.376L255.97 36.7202L239.356 46.0239Z" fill="#DCE5CA"/>
<path d="M281.06 67.2474L296.764 57.376V95.0476L281.06 103.92V67.2474Z" fill="#C7D1B0"/>
<path d="M272.155 49.4419C273.178 49.5212 274.175 49.785 275.093 50.2193C275.738 50.4728 276.29 50.9022 276.679 51.4532C276.819 51.6895 276.885 51.9583 276.871 52.2289C276.858 52.4994 276.764 52.7609 276.601 52.9833C276.157 53.5864 275.557 54.0709 274.859 54.3899L277.628 55.6239L276.094 56.3765L273.26 55.2043C271.917 55.6893 270.497 55.9563 269.061 55.994C267.517 56.0599 265.977 55.803 264.55 55.2413L267.475 53.7976C268.086 54.0219 268.732 54.147 269.386 54.1678C269.866 54.1898 270.346 54.1525 270.816 54.0568L266.617 52.0948C265.408 52.4033 264.368 52.6378 263.523 52.7858C262.596 52.9346 261.652 52.9719 260.715 52.8969C259.683 52.815 258.677 52.547 257.751 52.1072C257.041 51.8532 256.454 51.3617 256.1 50.7252C255.993 50.4753 255.959 50.2029 256 49.9362C256.041 49.6695 256.156 49.4179 256.334 49.2075C256.738 48.7036 257.247 48.2837 257.829 47.9735L255.086 46.7396L256.62 45.9869L259.402 47.2208C260.715 46.7062 262.116 46.426 263.536 46.3941C264.998 46.3426 266.455 46.5822 267.813 47.0975L264.849 48.5535C264.294 48.3624 263.71 48.2582 263.12 48.245C262.683 48.227 262.246 48.2643 261.82 48.3561L265.967 50.2686H266.149C267.388 49.9643 268.45 49.738 269.334 49.59C270.264 49.4264 271.212 49.3766 272.155 49.4419V49.4419ZM273.078 52.5884C273.078 52.2552 272.779 51.9591 272.22 51.7C271.669 51.4497 271.062 51.3311 270.452 51.3545C269.866 51.3749 269.283 51.4451 268.71 51.5642L272.532 53.3534C272.896 53.1067 273.078 52.8599 273.078 52.6007V52.5884ZM263.835 50.7622L260.234 49.0347C260.113 49.1047 260.009 49.198 259.928 49.3085C259.848 49.419 259.792 49.5443 259.766 49.6764C259.766 49.9725 260.013 50.244 260.559 50.5031C261.094 50.7476 261.681 50.8702 262.275 50.8609C262.798 50.8521 263.32 50.8026 263.835 50.7128" fill="#4E6628"/>
<path d="M203.45 159.384L169 297.349C168.168 300.668 173.563 302.087 174.395 298.756L208.793 160.791C209.625 157.472 204.23 156.053 203.398 159.384H203.45Z" fill="#9E4C36"/>
<path d="M235.729 175.721L201.331 313.674C200.499 316.993 205.894 318.412 206.726 315.081L241.124 177.116C241.956 173.797 236.561 172.378 235.729 175.709V175.721Z" fill="#9E4C36"/>
<path d="M199.862 181.151L232.141 198.265C235.287 199.931 238.108 195.353 234.962 193.687L202.683 176.573C199.537 174.907 196.716 179.485 199.862 181.151V181.151Z" fill="#9E4C36"/>
<path d="M196.495 200.326L227.5 216.737C230.646 218.403 233.467 213.825 230.321 212.159L199.355 195.748C196.209 194.082 193.388 198.66 196.534 200.326H196.495Z" fill="#9E4C36"/>
<path d="M192.751 215.861L223.665 232.26C226.811 233.925 229.632 229.348 226.486 227.682L195.572 211.283C192.426 209.617 189.605 214.195 192.751 215.861Z" fill="#9E4C36"/>
<path d="M187.889 232.568L218.53 248.807C221.676 250.472 224.497 245.895 221.351 244.229L190.71 227.953C187.564 226.288 184.743 230.865 187.889 232.531V232.568Z" fill="#9E4C36"/>
<path d="M183.677 247.856L214.37 264.132C217.516 265.798 220.337 261.22 217.191 259.554L186.498 243.279C183.352 241.613 180.531 246.191 183.677 247.856Z" fill="#9E4C36"/>
<path d="M178.997 265.637L211.276 282.752C214.422 284.418 217.243 279.84 214.097 278.174L181.818 261.059C178.672 259.394 175.851 263.971 178.997 265.637V265.637Z" fill="#9E4C36"/>
<path d="M239.46 96.4296C239.46 96.4296 243.022 92.3083 243.36 90.9263C243.698 89.5443 243.854 83.9423 244.894 83.8189C245.934 83.6956 246.519 84.8431 247.143 84.7197C248.041 84.4648 248.965 84.3035 249.899 84.2385C250.12 84.3865 253.695 87.9402 253.253 89.3469C252.811 90.7536 247.247 94.2826 247.247 94.2826L240.5 101.316" fill="#FCBF81"/>
<path d="M205.491 89.0014C205.491 89.0014 204.919 83.6956 205.491 82.3999C206.063 81.1043 209.157 76.3167 208.351 75.6627C207.545 75.0088 206.401 75.6627 205.946 75.2309C205.491 74.799 204.204 73.38 203.931 73.38C203.658 73.38 198.627 74.4658 198.172 75.8478C197.717 77.2298 200.291 83.128 200.291 83.128L201.838 92.5304" fill="#FCBF81"/>
<path d="M212.771 115.173C212.771 115.173 206.011 86.5459 205.062 86.3608C202.79 86.1961 200.521 86.7003 198.562 87.8045C196.209 89.2482 201.318 121.651 201.318 121.651" fill="#AA2B2B"/>
<path d="M209.365 233.605L213.863 235.53C213.968 235.939 214.183 236.317 214.485 236.626C214.788 236.935 215.169 237.165 215.592 237.294C215.737 237.493 215.955 237.634 216.203 237.689C218.071 237.962 219.981 237.819 221.78 237.269C224.055 236.776 232.973 234.296 230.061 240.009C228.397 240.947 226.551 241.712 224.861 242.477C223.912 242.933 222.95 243.39 221.975 243.797C221.454 244.08 220.887 244.28 220.298 244.389C218.998 244.476 216.099 243.353 215.995 243.649C215.891 243.945 215.423 246.191 215.423 246.191C215.423 246.191 207.311 248.449 207.389 243.414C207.402 242.76 209.365 233.605 209.365 233.605Z" fill="#34323D"/>
<path d="M205.283 226.436C205.283 226.436 213.356 223.746 215.228 223.758C217.1 223.77 220.194 224.622 217.178 227.67C217.178 227.67 208.559 232.136 207.467 232.21C206.375 232.284 203.814 231.31 203.723 231.569C203.632 231.828 203.229 233.777 203.229 233.777C203.229 233.777 196.17 235.739 196.235 231.31C196.235 230.742 197.951 222.746 197.951 222.746" fill="#34323D"/>
<path d="M206.7 188.159C206.986 173.352 207.714 158.41 205.66 143.639C205.842 139.851 203.06 142.072 203.359 140.579C205.79 128.536 223.21 144.417 223.21 144.417C223.912 145.058 223.691 148.797 223.769 149.649C224.211 154.379 224.536 159.117 224.744 163.863C225.823 187.826 222.677 211.345 219.401 235.048C215.111 238.59 212.42 239.54 206.245 236.578C206.245 220.908 206.401 205.224 206.661 189.554C206.687 189.093 206.7 188.628 206.7 188.159Z" fill="#68E1FD"/>
<path d="M196.3 214.294C196.703 208.396 197.457 202.51 197.99 196.673C198.809 187.727 198.562 178.769 198.692 169.811C199.875 158.706 201.058 144.59 201.058 144.59L210.743 147.144C210.743 147.144 217.035 224.56 207.376 227.842C197.717 231.125 196.235 225.165 196.235 225.165C196.235 225.165 196.3 220.611 196.3 214.294Z" fill="#68E1FD"/>
<path d="M200.291 144.047C200.345 142.493 200.554 140.948 200.915 139.432C201.618 134.519 201.618 129.538 200.915 124.625C200.317 119.874 200.278 114.951 203.372 110.904C207.831 108.436 214.032 110.644 217.776 113.26C222.859 116.814 224.562 140.95 224.484 148.415C224.484 149.464 217.75 150.007 216.983 150.056C213.497 150.356 209.983 150.106 206.583 149.316C204.152 148.699 201.123 147.551 200.447 144.972C200.363 144.669 200.311 144.359 200.291 144.047V144.047Z" fill="#EA4949"/>
<path d="M206.57 151.018C206.652 150.887 206.78 150.787 206.93 150.734C207.081 150.682 207.247 150.68 207.399 150.729C207.551 150.778 207.681 150.875 207.767 151.004C207.852 151.133 207.889 151.286 207.87 151.438C203.281 164.789 210.886 178.584 209.417 192.231C208.637 199.413 207.298 206.471 206.817 213.689C206.359 221.353 206.441 229.037 207.064 236.689C207.129 237.541 205.764 237.467 205.66 236.628C205.037 228.975 204.955 221.291 205.413 213.627C205.881 206.014 207.441 198.561 208.091 190.973C209.3 177.585 202.02 164.234 206.57 151.018Z" fill="#34323D"/>
<path d="M212.03 97.2194C212.459 97.3057 216.32 104.894 215.137 109.633C213.954 114.371 205.348 109.879 203.086 106.387C200.824 102.895 204.009 95.5782 212.03 97.2194Z" fill="#FCBF81"/>
<path d="M211.9 98.3052C211.928 99.0232 211.735 99.7333 211.345 100.349C210.955 100.965 210.384 101.459 209.703 101.773C207.389 102.686 205.465 103.315 205.634 104.339C205.803 105.363 209.872 104.031 209.989 106.387C210.06 107.98 209.902 109.574 209.521 111.126C209.313 112.298 202.111 109.016 199.524 103.056C196.937 97.096 202.696 95.2697 202.969 95.2204C203.777 93.9927 205.053 93.1086 206.531 92.7525C209.365 92.0492 210.21 93.0734 210.21 93.0734C210.843 92.6768 211.595 92.4886 212.351 92.5376C213.108 92.5867 213.826 92.8703 214.396 93.3448C215 93.7749 215.478 94.3451 215.783 95.0007C216.088 95.6563 216.211 96.3754 216.139 97.0889C216.067 97.8024 215.803 98.4865 215.373 99.0754C214.943 99.6644 214.36 100.138 213.681 100.452L211.9 98.3052Z" fill="#34323D"/>
<path d="M213.395 111.36C213.395 111.36 222.079 111.434 226.031 108.571C229.983 105.709 241.215 91.2965 241.215 91.2965C241.215 91.2965 249.431 96.6888 249.444 98.4409C249.457 100.193 235.508 118.566 231.66 120.652C227.812 122.737 219.765 127.278 219.765 127.278" fill="#EA4949"/>
<path d="M222.3 125.649C222.3 125.649 219.375 125.575 217.958 125.649C216.541 125.723 224.068 138.963 224.068 138.963L222.3 125.649Z" fill="#AA2B2B"/>
<path d="M344.864 261.454C361.664 261.454 375.284 253.88 375.284 244.537C375.284 235.194 361.664 227.62 344.864 227.62C328.063 227.62 314.444 235.194 314.444 244.537C314.444 253.88 328.063 261.454 344.864 261.454Z" fill="#FF912E"/>
<path d="M314.444 244.537V239.651L317.759 243.562L314.444 244.537Z" fill="#E0944F"/>
<path d="M375.297 239.651V244.537H371.436L374.257 240.613L375.297 239.651Z" fill="#E0944F"/>
<path d="M344.864 256.568C361.664 256.568 375.284 248.994 375.284 239.651C375.284 230.308 361.664 222.734 344.864 222.734C328.063 222.734 314.444 230.308 314.444 239.651C314.444 248.994 328.063 256.568 344.864 256.568Z" fill="#FFB92C"/>
<path d="M360.295 237.393C360.499 237.774 360.584 238.202 360.542 238.627L360.425 239.071H354.874C354.923 238.926 354.958 238.778 354.978 238.627C354.956 238.283 354.839 237.952 354.64 237.664C354.341 237.158 353.888 236.75 353.34 236.492C352.536 236.093 351.647 235.869 350.74 235.838C349.894 235.778 349.046 235.901 348.257 236.196C347.477 236.508 347.178 236.92 347.36 237.43C347.621 238.057 348.025 238.622 348.543 239.083C349.145 239.663 349.709 240.277 350.233 240.922C350.48 241.2 350.64 241.538 350.693 241.899C350.746 242.259 350.69 242.626 350.532 242.958C349.922 243.918 348.958 244.63 347.828 244.957C345.96 245.694 343.962 246.087 341.939 246.117C339.736 246.192 337.536 245.9 335.439 245.253L332.241 246.561L328.497 244.833L331.604 243.599C331.051 243.256 330.552 242.841 330.122 242.366C329.793 242.003 329.542 241.584 329.381 241.132C329.274 240.824 329.209 240.505 329.186 240.181C329.148 239.961 329.148 239.736 329.186 239.515L329.29 239.268H334.841C334.786 239.442 334.742 239.62 334.711 239.799C334.727 240.243 334.88 240.672 335.153 241.033C335.599 241.693 336.242 242.213 336.999 242.526C338.002 243.004 339.101 243.273 340.223 243.316C341.239 243.379 342.257 243.223 343.2 242.859C343.971 242.546 344.262 242.135 344.071 241.625C343.799 240.994 343.382 240.429 342.849 239.972C342.236 239.403 341.667 238.792 341.146 238.145C340.902 237.862 340.75 237.518 340.709 237.154C340.667 236.791 340.738 236.423 340.912 236.097C341.575 235.124 342.579 234.403 343.746 234.061C345.54 233.376 347.454 233.02 349.388 233.012C351.435 232.947 353.477 233.248 355.407 233.901L358.592 232.605L362.076 234.407L358.878 235.715C359.492 236.152 359.979 236.729 360.295 237.393V237.393Z" fill="#EA8B24"/>
<path d="M344.916 254.063C359.024 254.063 370.461 247.704 370.461 239.861C370.461 232.017 359.024 225.658 344.916 225.658C330.808 225.658 319.371 232.017 319.371 239.861C319.371 247.704 330.808 254.063 344.916 254.063Z" stroke="#F7931E" stroke-width="2.03" stroke-miterlimit="10"/>
<path d="M344.864 249.201C361.664 249.201 375.284 241.627 375.284 232.284C375.284 222.941 361.664 215.367 344.864 215.367C328.063 215.367 314.444 222.941 314.444 232.284C314.444 241.627 328.063 249.201 344.864 249.201Z" fill="#FF912E"/>
<path d="M314.444 232.284V227.398L317.759 231.297L314.444 232.284Z" fill="#E0944F"/>
<path d="M375.297 227.398V232.284H371.436L374.257 228.361L375.297 227.398Z" fill="#E0944F"/>
<path d="M344.864 244.315C361.664 244.315 375.284 236.741 375.284 227.398C375.284 218.055 361.664 210.481 344.864 210.481C328.063 210.481 314.444 218.055 314.444 227.398C314.444 236.741 328.063 244.315 344.864 244.315Z" fill="#FFB92C"/>
<path d="M360.295 225.14C360.499 225.521 360.584 225.949 360.542 226.374L360.425 226.818H354.874C354.923 226.674 354.958 226.525 354.978 226.374C354.956 226.031 354.839 225.699 354.64 225.411C354.341 224.906 353.888 224.497 353.34 224.239C352.536 223.84 351.647 223.616 350.74 223.585C349.894 223.526 349.046 223.648 348.257 223.943C347.477 224.256 347.178 224.667 347.36 225.177C347.621 225.804 348.025 226.369 348.543 226.83C349.145 227.41 349.709 228.024 350.233 228.669C350.48 228.947 350.64 229.286 350.693 229.646C350.746 230.006 350.69 230.373 350.532 230.705C349.922 231.665 348.958 232.377 347.828 232.704C345.96 233.441 343.962 233.835 341.939 233.864C339.736 233.939 337.536 233.647 335.439 233L332.241 234.308L328.497 232.581L331.604 231.347C331.051 231.004 330.552 230.588 330.122 230.113C329.793 229.751 329.542 229.332 329.381 228.879C329.274 228.571 329.209 228.252 329.186 227.929C329.148 227.708 329.148 227.483 329.186 227.262L329.29 227.016H334.841C334.786 227.19 334.742 227.367 334.711 227.546C334.727 227.99 334.88 228.419 335.153 228.78C335.599 229.44 336.242 229.96 336.999 230.273C338.002 230.751 339.101 231.02 340.223 231.063C341.239 231.127 342.257 230.971 343.2 230.606C343.971 230.294 344.262 229.882 344.071 229.372C343.799 228.741 343.382 228.176 342.849 227.719C342.236 227.15 341.667 226.54 341.146 225.893C340.902 225.609 340.75 225.265 340.709 224.902C340.667 224.538 340.738 224.171 340.912 223.844C341.575 222.871 342.579 222.15 343.746 221.808C345.54 221.123 347.454 220.767 349.388 220.76C351.435 220.694 353.477 220.996 355.407 221.648L358.592 220.352L362.076 222.154L358.878 223.462C359.492 223.899 359.979 224.476 360.295 225.14V225.14Z" fill="#EA8B24"/>
<path d="M344.916 241.798C359.024 241.798 370.461 235.439 370.461 227.595C370.461 219.752 359.024 213.393 344.916 213.393C330.808 213.393 319.371 219.752 319.371 227.595C319.371 235.439 330.808 241.798 344.916 241.798Z" stroke="#F7931E" stroke-width="2.03" stroke-miterlimit="10"/>
<path d="M344.864 243.34C361.664 243.34 375.284 235.766 375.284 226.423C375.284 217.08 361.664 209.506 344.864 209.506C328.063 209.506 314.444 217.08 314.444 226.423C314.444 235.766 328.063 243.34 344.864 243.34Z" fill="#FF912E"/>
<path d="M314.444 226.423V221.537L317.759 225.448L314.444 226.423Z" fill="#E0944F"/>
<path d="M375.297 221.537V226.423H371.436L374.257 222.499L375.297 221.537Z" fill="#E0944F"/>
<path d="M344.864 238.454C361.664 238.454 375.284 230.88 375.284 221.537C375.284 212.194 361.664 204.62 344.864 204.62C328.063 204.62 314.444 212.194 314.444 221.537C314.444 230.88 328.063 238.454 344.864 238.454Z" fill="#FFB92C"/>
<path d="M360.295 219.316C360.499 219.697 360.584 220.125 360.542 220.55L360.425 220.994H354.874C354.923 220.849 354.958 220.701 354.978 220.55C354.956 220.207 354.839 219.875 354.64 219.587C354.341 219.082 353.888 218.673 353.34 218.415C352.536 218.016 351.647 217.792 350.74 217.761C349.894 217.701 349.046 217.824 348.257 218.119C347.477 218.432 347.178 218.843 347.36 219.353C347.621 219.98 348.025 220.545 348.543 221.006C349.145 221.586 349.709 222.2 350.233 222.845C350.48 223.123 350.64 223.461 350.693 223.822C350.746 224.182 350.69 224.549 350.532 224.881C349.922 225.841 348.958 226.553 347.828 226.88C345.96 227.617 343.962 228.01 341.939 228.04C339.736 228.115 337.536 227.823 335.439 227.176L332.241 228.484L328.497 226.756L331.604 225.522C331.051 225.18 330.552 224.764 330.122 224.289C329.793 223.927 329.542 223.508 329.381 223.055C329.274 222.747 329.209 222.428 329.186 222.105C329.148 221.884 329.148 221.659 329.186 221.438L329.29 221.191H334.841C334.786 221.365 334.742 221.543 334.711 221.722C334.727 222.166 334.88 222.595 335.153 222.956C335.599 223.616 336.242 224.136 336.999 224.449C338.002 224.927 339.101 225.196 340.223 225.239C341.239 225.303 342.257 225.146 343.2 224.782C343.971 224.47 344.262 224.058 344.071 223.548C343.799 222.917 343.382 222.352 342.849 221.895C342.236 221.326 341.667 220.715 341.146 220.069C340.902 219.785 340.75 219.441 340.709 219.077C340.667 218.714 340.738 218.346 340.912 218.02C341.575 217.047 342.579 216.326 343.746 215.984C345.54 215.299 347.454 214.943 349.388 214.935C351.435 214.87 353.477 215.171 355.407 215.824L358.592 214.528L362.076 216.33L358.878 217.638C359.492 218.075 359.979 218.652 360.295 219.316Z" fill="#EA8B24"/>
<path d="M344.916 235.949C359.024 235.949 370.461 229.59 370.461 221.747C370.461 213.903 359.024 207.544 344.916 207.544C330.808 207.544 319.371 213.903 319.371 221.747C319.371 229.59 330.808 235.949 344.916 235.949Z" stroke="#F7931E" stroke-width="2.03" stroke-miterlimit="10"/>
<path d="M344.864 237.38C361.664 237.38 375.284 229.806 375.284 220.463C375.284 211.12 361.664 203.546 344.864 203.546C328.063 203.546 314.444 211.12 314.444 220.463C314.444 229.806 328.063 237.38 344.864 237.38Z" fill="#FF912E"/>
<path d="M314.444 220.463V215.577L317.759 219.476L314.444 220.463Z" fill="#E0944F"/>
<path d="M375.297 215.577V220.463H371.436L374.257 216.54L375.297 215.577Z" fill="#E0944F"/>
<path d="M344.864 232.494C361.664 232.494 375.284 224.92 375.284 215.577C375.284 206.234 361.664 198.66 344.864 198.66C328.063 198.66 314.444 206.234 314.444 215.577C314.444 224.92 328.063 232.494 344.864 232.494Z" fill="#FFB92C"/>
<path d="M360.295 213.307C360.499 213.688 360.584 214.115 360.542 214.541L360.425 214.985H354.874C354.923 214.84 354.958 214.691 354.978 214.541C354.956 214.197 354.839 213.866 354.64 213.578C354.341 213.072 353.888 212.664 353.34 212.406C352.536 212.007 351.647 211.783 350.74 211.752C349.894 211.692 349.046 211.815 348.257 212.11C347.477 212.422 347.178 212.834 347.36 213.344C347.621 213.971 348.025 214.536 348.543 214.997C349.145 215.577 349.709 216.191 350.233 216.836C350.48 217.114 350.64 217.452 350.693 217.813C350.746 218.173 350.69 218.54 350.532 218.872C349.922 219.832 348.958 220.544 347.828 220.871C345.96 221.608 343.962 222.001 341.939 222.031C339.736 222.106 337.536 221.814 335.439 221.167L332.241 222.475L328.497 220.747L331.604 219.513C331.051 219.17 330.552 218.755 330.122 218.279C329.793 217.917 329.542 217.498 329.381 217.045C329.274 216.738 329.209 216.419 329.186 216.095C329.148 215.875 329.148 215.65 329.186 215.429L329.29 215.182H334.841C334.786 215.356 334.742 215.533 334.711 215.713C334.727 216.157 334.88 216.586 335.153 216.947C335.599 217.607 336.242 218.127 336.999 218.44C338.002 218.918 339.101 219.187 340.223 219.229C341.239 219.293 342.257 219.137 343.2 218.773C343.971 218.46 344.262 218.049 344.071 217.539C343.799 216.908 343.382 216.343 342.849 215.886C342.236 215.317 341.667 214.706 341.146 214.059C340.902 213.776 340.75 213.432 340.709 213.068C340.667 212.705 340.738 212.337 340.912 212.011C341.575 211.038 342.579 210.317 343.746 209.975C345.54 209.29 347.454 208.934 349.388 208.926C351.435 208.861 353.477 209.162 355.407 209.815L358.592 208.519L362.076 210.321L358.878 211.629C359.492 212.066 359.979 212.643 360.295 213.307V213.307Z" fill="#EA8B24"/>
<path d="M344.916 229.977C359.024 229.977 370.461 223.618 370.461 215.775C370.461 207.931 359.024 201.572 344.916 201.572C330.808 201.572 319.371 207.931 319.371 215.775C319.371 223.618 330.808 229.977 344.916 229.977Z" stroke="#F7931E" stroke-width="2.03" stroke-miterlimit="10"/>
<path d="M336.674 226.941C353.475 226.941 367.094 219.367 367.094 210.024C367.094 200.681 353.475 193.107 336.674 193.107C319.874 193.107 306.254 200.681 306.254 210.024C306.254 219.367 319.874 226.941 336.674 226.941Z" fill="#FF912E"/>
<path d="M306.254 210.024V205.138L309.569 209.05L306.254 210.024Z" fill="#E0944F"/>
<path d="M367.107 205.138V210.024H363.246L366.08 206.101L367.107 205.138Z" fill="#E0944F"/>
<path d="M336.674 222.055C353.475 222.055 367.094 214.481 367.094 205.138C367.094 195.795 353.475 188.221 336.674 188.221C319.874 188.221 306.254 195.795 306.254 205.138C306.254 214.481 319.874 222.055 336.674 222.055Z" fill="#FFB92C"/>
<path d="M352.118 202.88C352.322 203.261 352.407 203.689 352.365 204.114L352.248 204.558H346.697C346.746 204.414 346.781 204.265 346.801 204.114C346.779 203.771 346.662 203.439 346.463 203.151C346.164 202.646 345.711 202.237 345.163 201.979C344.359 201.58 343.47 201.356 342.563 201.325C341.718 201.266 340.869 201.388 340.08 201.683C339.3 201.996 339.001 202.407 339.183 202.917C339.444 203.544 339.848 204.109 340.366 204.571C340.968 205.15 341.533 205.764 342.056 206.409C342.304 206.687 342.463 207.026 342.516 207.386C342.569 207.746 342.513 208.114 342.355 208.445C341.745 209.405 340.782 210.117 339.651 210.444C337.783 211.181 335.785 211.575 333.762 211.604C331.559 211.679 329.359 211.387 327.262 210.74L324.064 212.048L320.32 210.321L323.427 209.087C322.874 208.744 322.375 208.328 321.945 207.853C321.616 207.491 321.365 207.072 321.204 206.619C321.097 206.311 321.032 205.992 321.009 205.669C320.971 205.448 320.971 205.223 321.009 205.002L321.113 204.756H326.664C326.609 204.93 326.565 205.107 326.534 205.286C326.55 205.73 326.703 206.159 326.976 206.52C327.422 207.18 328.065 207.7 328.822 208.013C329.825 208.491 330.924 208.76 332.046 208.803C333.062 208.867 334.08 208.711 335.023 208.346C335.794 208.034 336.085 207.622 335.894 207.112C335.622 206.481 335.205 205.916 334.672 205.459C334.059 204.89 333.49 204.28 332.969 203.633C332.725 203.35 332.573 203.005 332.532 202.642C332.49 202.278 332.561 201.911 332.735 201.584C333.398 200.611 334.402 199.89 335.569 199.548C337.363 198.863 339.277 198.507 341.211 198.5C343.258 198.434 345.3 198.736 347.23 199.388L350.415 198.092L353.899 199.894L350.701 201.202C351.315 201.639 351.802 202.216 352.118 202.88V202.88Z" fill="#EA8B24"/>
<path d="M336.739 219.55C350.847 219.55 362.284 213.192 362.284 205.348C362.284 197.504 350.847 191.145 336.739 191.145C322.631 191.145 311.194 197.504 311.194 205.348C311.194 213.192 322.631 219.55 336.739 219.55Z" stroke="#F7931E" stroke-width="2.03" stroke-miterlimit="10"/>
<path d="M336.674 220.784C353.475 220.784 367.094 213.21 367.094 203.867C367.094 194.524 353.475 186.95 336.674 186.95C319.874 186.95 306.254 194.524 306.254 203.867C306.254 213.21 319.874 220.784 336.674 220.784Z" fill="#FF912E"/>
<path d="M306.254 203.867V198.981L309.569 202.88L306.254 203.867Z" fill="#E0944F"/>
<path d="M367.107 198.981V203.867H363.246L366.08 199.943L367.107 198.981Z" fill="#E0944F"/>
<path d="M336.674 215.898C353.475 215.898 367.094 208.324 367.094 198.981C367.094 189.638 353.475 182.064 336.674 182.064C319.874 182.064 306.254 189.638 306.254 198.981C306.254 208.324 319.874 215.898 336.674 215.898Z" fill="#FFB92C"/>
<path d="M352.118 196.71C352.322 197.091 352.407 197.519 352.365 197.944L352.248 198.389H346.697C346.746 198.244 346.781 198.095 346.801 197.944C346.779 197.601 346.662 197.269 346.463 196.982C346.164 196.476 345.711 196.068 345.163 195.81C344.359 195.41 343.47 195.187 342.563 195.156C341.718 195.096 340.869 195.218 340.08 195.514C339.3 195.826 339.001 196.237 339.183 196.747C339.444 197.375 339.848 197.939 340.366 198.401C340.968 198.981 341.533 199.595 342.056 200.239C342.304 200.517 342.463 200.856 342.516 201.216C342.569 201.577 342.513 201.944 342.355 202.275C341.745 203.236 340.782 203.948 339.651 204.274C337.783 205.011 335.785 205.405 333.762 205.434C331.559 205.51 329.359 205.218 327.262 204.571L324.064 205.878L320.32 204.151L323.427 202.917C322.874 202.574 322.375 202.159 321.945 201.683C321.616 201.321 321.365 200.902 321.204 200.449C321.097 200.141 321.032 199.822 321.009 199.499C320.971 199.278 320.971 199.053 321.009 198.833L321.113 198.586H326.664C326.609 198.76 326.565 198.937 326.534 199.117C326.55 199.56 326.703 199.99 326.976 200.35C327.422 201.011 328.065 201.53 328.822 201.844C329.825 202.321 330.924 202.591 332.046 202.633C333.062 202.697 334.08 202.541 335.023 202.177C335.794 201.864 336.085 201.453 335.894 200.943C335.622 200.312 335.205 199.747 334.672 199.289C334.059 198.72 333.49 198.11 332.969 197.463C332.725 197.18 332.573 196.836 332.532 196.472C332.49 196.108 332.561 195.741 332.735 195.415C333.398 194.441 334.402 193.72 335.569 193.379C337.363 192.694 339.277 192.338 341.211 192.33C343.258 192.265 345.3 192.566 347.23 193.218L350.415 191.923L353.899 193.724L350.701 195.032C351.315 195.469 351.802 196.047 352.118 196.71Z" fill="#EA8B24"/>
<path d="M336.739 213.381C350.847 213.381 362.284 207.022 362.284 199.178C362.284 191.334 350.847 184.976 336.739 184.976C322.631 184.976 311.194 191.334 311.194 199.178C311.194 207.022 322.631 213.381 336.739 213.381Z" stroke="#F7931E" stroke-width="2.03" stroke-miterlimit="10"/>
<path d="M337.155 214.923C353.955 214.923 367.575 207.349 367.575 198.006C367.575 188.663 353.955 181.089 337.155 181.089C320.354 181.089 306.735 188.663 306.735 198.006C306.735 207.349 320.354 214.923 337.155 214.923Z" fill="#FF912E"/>
<path d="M306.735 198.006V193.12L310.05 197.031L306.735 198.006Z" fill="#E0944F"/>
<path d="M367.588 193.12V198.006H363.727L366.548 194.082L367.588 193.12Z" fill="#E0944F"/>
<path d="M337.155 210.037C353.955 210.037 367.575 202.463 367.575 193.12C367.575 183.777 353.955 176.203 337.155 176.203C320.354 176.203 306.735 183.777 306.735 193.12C306.735 202.463 320.354 210.037 337.155 210.037Z" fill="#FFB92C"/>
<path d="M352.586 190.862C352.79 191.242 352.875 191.67 352.833 192.096L352.716 192.54H347.165C347.214 192.395 347.249 192.246 347.269 192.096C347.247 191.752 347.13 191.42 346.931 191.133C346.632 190.627 346.179 190.219 345.631 189.961C344.827 189.561 343.938 189.338 343.031 189.307C342.185 189.247 341.337 189.369 340.548 189.665C339.768 189.977 339.469 190.389 339.651 190.899C339.912 191.526 340.316 192.091 340.834 192.552C341.436 193.132 342 193.746 342.524 194.391C342.771 194.668 342.931 195.007 342.984 195.368C343.037 195.728 342.981 196.095 342.823 196.427C342.213 197.387 341.249 198.099 340.119 198.426C338.251 199.163 336.253 199.556 334.23 199.585C332.027 199.661 329.827 199.369 327.73 198.722L324.532 200.03L320.788 198.302L323.895 197.068C323.342 196.725 322.843 196.31 322.413 195.834C322.084 195.472 321.833 195.053 321.672 194.6C321.565 194.293 321.5 193.973 321.477 193.65C321.439 193.43 321.439 193.205 321.477 192.984L321.581 192.737H327.132C327.077 192.911 327.033 193.088 327.002 193.268C327.018 193.712 327.171 194.141 327.444 194.502C327.89 195.162 328.532 195.681 329.29 195.995C330.293 196.473 331.392 196.742 332.514 196.784C333.53 196.848 334.548 196.692 335.491 196.328C336.262 196.015 336.553 195.604 336.362 195.094C336.09 194.463 335.673 193.898 335.14 193.441C334.527 192.872 333.957 192.261 333.437 191.614C333.193 191.331 333.041 190.987 333 190.623C332.958 190.26 333.029 189.892 333.203 189.566C333.866 188.592 334.87 187.872 336.037 187.53C337.831 186.845 339.745 186.489 341.679 186.481C343.726 186.416 345.768 186.717 347.698 187.37L351 186.123L354.484 187.925L351.286 189.233C351.85 189.669 352.296 190.228 352.586 190.862V190.862Z" fill="#EA8B24"/>
<path d="M337.207 207.532C351.315 207.532 362.752 201.173 362.752 193.329C362.752 185.486 351.315 179.127 337.207 179.127C323.099 179.127 311.662 185.486 311.662 193.329C311.662 201.173 323.099 207.532 337.207 207.532Z" stroke="#F7931E" stroke-width="2.03" stroke-miterlimit="10"/>
<path d="M362.206 185.025C362.206 185.025 362.986 196.377 353.678 197.068C353.678 197.068 361.556 200.165 362.856 206.113C362.856 206.113 363.831 197.821 371.826 196.97C368.997 196.374 366.48 194.848 364.72 192.663C362.96 190.478 362.07 187.773 362.206 185.025V185.025Z" fill="white"/>
<path d="M307.97 39.5829C307.97 39.5829 308.568 48.4054 301.34 48.9483C301.34 48.9483 307.463 51.4162 308.477 55.9693C308.477 55.9693 309.231 49.5283 315.445 48.862C313.247 48.3991 311.292 47.2144 309.924 45.5167C308.557 43.8191 307.864 41.7176 307.97 39.5829V39.5829Z" fill="white"/>
<path d="M370.24 59.8562L349.401 84.004H364.403V124.822H375.687V84.2508H389.909L370.24 59.8562Z" fill="#662D91"/>
<path d="M371.54 158.718L375.687 152.919V89.0631H385.762L389.909 84.2508L378.287 69.8386L367.315 88.4585L371.54 158.718Z" fill="#662D91"/>
<path d="M366.093 64.6685L345.254 88.8163H360.256V158.718H371.54V89.0631H385.762L366.093 64.6685Z" fill="#8B54BA"/>
</g>
<defs>
<filter id="filter0_d_3_3" x="-4" y="0" width="528" height="380" filterUnits="userSpaceOnUse" color-interpolation-filters="sRGB">
<feFlood flood-opacity="0" result="BackgroundImageFix"/>
<feColorMatrix in="SourceAlpha" type="matrix" values="0 0 0 0 0 0 0 0 0 0 0 0 0 0 0 0 0 0 127 0" result="hardAlpha"/>
<feOffset dy="4"/>
<feGaussianBlur stdDeviation="2"/>
<feComposite in2="hardAlpha" operator="out"/>
<feColorMatrix type="matrix" values="0 0 0 0 0 0 0 0 0 0 0 0 0 0 0 0 0 0 0.25 0"/>
<feBlend mode="normal" in2="BackgroundImageFix" result="effect1_dropShadow_3_3"/>
<feBlend mode="normal" in="SourceGraphic" in2="effect1_dropShadow_3_3" result="shape"/>
</filter>
<linearGradient id="paint0_linear_3_3" x1="37.661" y1="245.771" x2="88.1105" y2="210.929" gradientUnits="userSpaceOnUse">
<stop stop-color="white" stop-opacity="0"/>
<stop offset="0.99" stop-color="#808080"/>
</linearGradient>
<linearGradient id="paint1_linear_3_3" x1="293.995" y1="283.788" x2="348.949" y2="245.831" gradientUnits="userSpaceOnUse">
<stop stop-color="white" stop-opacity="0"/>
<stop offset="0.99" stop-color="#808080"/>
</linearGradient>
<linearGradient id="paint2_linear_3_3" x1="199.03" y1="290.661" x2="231.757" y2="254.098" gradientUnits="userSpaceOnUse">
<stop stop-color="white" stop-opacity="0"/>
<stop offset="1" stop-color="#9E005D"/>
</linearGradient>
</defs>
</svg>
