<svg width="534" height="372" viewBox="0 0 534 372" fill="none" xmlns="http://www.w3.org/2000/svg">
<path d="M254.478 354.208L14.5515 223.141C6.91531 219.18 0.360458 212.665 7.80976 208.408L248.604 80.0802C252.222 78.0072 257.708 76.6498 261.38 78.6241L513.241 213.776C520.877 217.872 522.252 229.323 514.576 233.432L286.104 353.998C281.307 356.571 275.867 357.943 270.321 357.98C264.775 358.017 259.314 356.717 254.478 354.208V354.208Z" fill="#16A79E"/>
<path style="mix-blend-mode:multiply" opacity="0.63" d="M169.078 229.73L135.903 246.783L162.149 262.084L188.395 247.499C185.792 245.944 171.708 231.26 169.078 229.73Z" fill="url(#paint0_linear_12_86)"/>
<path style="mix-blend-mode:multiply" opacity="0.63" d="M321.895 285.577L282.846 303.519L316.849 321.46L363.948 290.353C359.729 287.848 326.154 288.045 321.895 285.577Z" fill="url(#paint1_linear_12_86)"/>
<path style="mix-blend-mode:multiply" opacity="0.63" d="M296.544 217.724L242.81 245.352L264.33 259.147L305.395 232.223C301.216 229.705 300.802 220.192 296.544 217.724Z" fill="url(#paint2_linear_12_86)"/>
<path style="mix-blend-mode:multiply" opacity="0.63" d="M251.941 203.275L214.561 222.487L229.62 232.124L263.956 206.718C260.966 204.978 254.905 205.039 251.941 203.275Z" fill="url(#paint3_linear_12_86)"/>
<path style="mix-blend-mode:multiply" opacity="0.63" d="M198.474 248.597L144.741 276.224L171.841 295.819L205.416 277.002C201.198 274.534 202.746 251.065 198.474 248.597Z" fill="url(#paint4_linear_12_86)"/>
<path style="mix-blend-mode:multiply" opacity="0.63" d="M259.564 239.059C255.994 238.451 252.481 237.584 249.058 236.467C244.932 235.085 240.474 233.099 237.977 229.693L196.525 251.003L223.626 270.647L261.153 240.502C260.536 240.11 259.998 239.622 259.564 239.059V239.059Z" fill="url(#paint5_linear_12_86)"/>
<path d="M310.187 201.017C308.572 201.017 306.316 202.596 304.847 203.263L300.842 205.101C300.842 205.101 298.172 214.38 296.61 217.773C295.048 221.167 289.521 228.595 291.457 231.347C292.784 233.054 294.763 234.231 296.993 234.642C299.224 235.052 301.54 234.663 303.472 233.555C308.559 230.976 308.412 222.376 310.267 219.032C311.789 216.268 311.082 210.395 311.082 209.161C311.156 206.422 310.855 203.686 310.187 201.017V201.017Z" fill="#181816"/>
<path d="M268.335 184.186C266.72 184.186 264.464 185.766 262.995 186.432L258.99 188.27C258.99 188.27 257.655 198.376 254.758 200.943C251.861 203.509 241.128 208.951 243.063 211.715C244.296 213.436 246.199 214.653 248.376 215.113C250.554 215.572 252.839 215.239 254.758 214.183C259.844 211.604 263.182 206.31 266.773 204.965C269.897 203.818 268.575 196.328 268.695 193.86C269.054 190.635 268.933 187.38 268.335 184.186Z" fill="#181816"/>
<path d="M261.073 89.6553C261.073 89.6553 254.131 123.81 254.758 142.541C255.386 161.272 255.733 184.211 257.281 194.366C257.281 194.366 270.711 196.093 275.264 192.379C275.264 192.379 276.599 126.735 276.705 127.105C278.761 135.742 288.413 179.991 289.441 182.878C290.469 185.765 295.422 209.087 295.422 209.087C298.657 209.827 302.022 209.945 305.308 209.433C308.594 208.922 311.732 207.792 314.526 206.113C314.526 206.113 312.857 172.513 309.747 163.086C306.636 153.659 295.783 94.2949 290.509 89.6553" fill="#68E1FD"/>
<path d="M261.073 89.6553C261.073 89.6553 254.131 123.81 254.758 142.541C255.386 161.272 255.733 184.211 257.281 194.366C257.281 194.366 270.711 196.093 275.264 192.379C275.264 192.379 276.599 126.735 276.705 127.105C278.761 135.742 288.413 179.991 289.441 182.878C290.469 185.765 295.422 209.087 295.422 209.087C298.657 209.827 302.022 209.945 305.308 209.433C308.594 208.922 311.732 207.792 314.526 206.113C314.526 206.113 312.857 172.513 309.747 163.086C306.636 153.659 295.783 94.2949 290.509 89.6553" fill="#68E1FD"/>
<path d="M290.162 92.4071C290.162 92.4071 302.044 60.4732 297.238 53.1683C292.432 45.8635 273.208 40.1135 263.97 40.8291C254.731 41.5448 260.659 92.0122 262.114 92.3824C263.569 92.7525 277.199 101.415 290.162 92.4071Z" fill="#F7931E"/>
<path d="M294.087 49.8861L279.669 44.3582C277.053 56.0722 274.338 67.7615 271.526 79.4262L291.657 82.6961C291.657 82.6961 303.672 76.6005 305.488 66.9266C307.304 57.2526 294.635 50.3303 294.087 49.8861Z" fill="#F7931E"/>
<path d="M265.024 60.0783C265.024 60.0783 263.102 42.6306 263.102 41.1006C257.495 42.5842 252.254 45.0609 247.669 48.3931C245.326 50.0731 243.146 51.9393 241.154 53.9704C239.786 55.1624 238.652 56.5653 237.804 58.1164C237.211 59.9577 237.151 61.9106 237.63 63.7801C238.519 68.1089 240.107 72.2893 242.343 76.181C244.689 80.7153 247.587 84.9876 250.98 88.915C252.035 90.149 255.439 94.5541 257.655 93.8507C262.101 92.4194 263.956 87.6811 263.956 87.6811C263.956 87.6811 261.9 83.9794 259.684 79.3275C258.349 76.5882 252.462 70.3815 251.674 66.1369C252.258 65.4095 252.891 64.7171 253.57 64.0639C256.494 61.3739 261.38 61.8305 265.024 60.0783Z" fill="#F7931E"/>
<path d="M266.706 42.0877L269.67 55.8213L273.675 51.4038L276.786 56.9071L285.116 46.4558C285.116 46.4558 272.34 40.9525 266.706 42.0877Z" fill="#ED6B00"/>
<path d="M282.74 35.9551C280.577 38.1762 276.412 37.189 273.675 36.5968C270.351 35.9058 266.533 34.0425 266.826 30.4272C266.826 29.8719 265.945 29.8842 265.892 30.4272C265.585 34.24 269.336 36.5968 272.901 37.3618C276.065 38.0898 280.911 39.2003 283.38 36.6091C283.794 36.1526 283.14 35.5356 282.74 35.9551Z" fill="#009245"/>
<path d="M265.024 28.058C265.024 28.058 265.024 46.7026 272.42 47.9242C280.55 49.2568 285.129 40.7181 285.129 40.7181C285.129 40.7181 286.171 24.2452 278.094 22.7892C270.017 21.3331 265.251 25.6766 265.024 28.058Z" fill="#FBB5AD"/>
<path d="M279.389 38.8672C279.389 38.8672 281.351 31.7105 283.514 34.0672C285.677 36.424 280.003 41.6312 280.003 41.6312" fill="#FBB5AD"/>
<path d="M281.365 20.4818C281.365 20.4818 288.587 21.1974 290.71 26.5156C292.832 31.8338 287.385 42.4085 283.514 44.099L288.2 34.8199L287.973 28.5022L281.365 20.4818Z" fill="#5C2E2E"/>
<path d="M290.563 28.8971C289.975 25.1953 287.305 23.3691 283.821 21.4936C283.536 21.3373 283.247 21.1933 282.953 21.0617C283.624 20.5536 284.162 19.9126 284.529 19.1861C284.575 19.1117 284.6 19.0273 284.6 18.9413C284.601 18.8553 284.577 18.7707 284.531 18.6959C284.485 18.6211 284.419 18.5587 284.339 18.5148C284.259 18.4709 284.168 18.4471 284.075 18.4458C283.62 18.4634 283.174 18.5679 282.765 18.7527C282.356 18.9374 281.993 19.1984 281.698 19.5193C281.29 18.7531 280.739 18.0597 280.07 17.471C280.004 17.4124 279.923 17.3704 279.835 17.3489C279.747 17.3274 279.654 17.3271 279.566 17.3482C279.477 17.3692 279.396 17.4108 279.33 17.469C279.264 17.5273 279.215 17.6001 279.189 17.6807C279.031 18.0411 278.961 18.4292 278.984 18.8174C279.007 19.2056 279.122 19.5843 279.322 19.9265C275.682 19.2157 271.887 19.7507 268.642 21.4319C267.458 22.0729 266.453 22.9601 265.705 24.0231C264.718 23.9302 263.723 24.097 262.835 24.5043C261.89 24.9223 261.119 25.6133 260.637 26.4727C260.155 27.332 259.99 28.313 260.165 29.2673C260.685 31.5007 263.262 32.2534 265.505 31.8955C266.597 31.6745 267.611 31.2036 268.455 30.5259C267.801 31.55 267.467 32.8456 269.603 33.2898C273.301 34.0796 275.063 32.0559 275.29 33.7464C275.477 35.1407 277.56 35.9181 279.068 35.9428C279.175 36.1525 279.456 36.7202 279.789 37.4975C280.538 37.2671 281.34 37.2245 282.112 37.3741C282.171 37.3123 282.245 37.2643 282.329 37.2343C282.412 37.2042 282.501 37.1929 282.59 37.2014C282.679 37.2098 282.764 37.2378 282.839 37.2828C282.914 37.3279 282.976 37.3888 283.02 37.4605C284.355 39.4965 284.008 41.7175 283.514 44.062C285.513 42.4741 287.159 40.5421 288.36 38.3736C290.087 35.4838 290.853 32.1874 290.563 28.8971V28.8971ZM280.056 18.9023L280.216 19.1121C280.207 19.1652 280.207 19.2194 280.216 19.2725C280.216 19.4329 280.337 19.581 280.417 19.7414C280.221 19.4948 280.097 19.2059 280.056 18.9023V18.9023Z" fill="#5C2E2E"/>
<path d="M270.698 54.649L272.874 58.5729L275.931 55.3153L273.728 51.4038L270.698 54.649Z" fill="#723100"/>
<path d="M272.874 58.5729C272.874 58.5729 275.931 78.3157 278.641 91.2595L274.636 98.1571L269.67 92.3083C269.67 92.3083 267.534 78.8092 272.874 58.5729Z" fill="#723100"/>
<path d="M273.315 92.37L270.444 63.5333L248.978 63.9898L251.981 92.37H273.315Z" fill="#68E1FD"/>
<path d="M280.63 81.0179L271.285 74.5768V77.0447C271.285 77.0447 262.835 73.5527 262.421 75.0828C261.954 76.7979 263.516 81.6966 264.957 82.1655C266.399 82.6343 272.353 84.3989 272.353 84.3989L277.066 85.7808L280.63 81.0179Z" fill="#FBB5AD"/>
<path d="M305.568 63.5333C305.568 63.5333 311.642 85.2133 307.464 89.6677C303.285 94.1222 276.171 89.2975 275.918 87.0518C275.664 84.8061 279.375 77.5136 279.375 77.5136L294.514 79.0437" fill="#F7931E"/>
<path d="M259.364 92.37C259.364 92.37 265.024 91.4816 266.159 94.3813C266.76 95.9114 262.394 94.3813 262.394 94.3813L259.297 102.895C258.358 101.821 257.837 100.488 257.815 99.1072C257.795 97.1571 257.988 95.2101 258.389 93.2955L259.364 92.37Z" fill="#FBB5AD"/>
<path d="M206.631 237.751C206.191 238.911 206.631 249.349 206.631 249.349L194.857 248.362L195.471 229.508L206.631 237.751Z" fill="#FBC76F"/>
<path d="M194.817 245.919C194.817 245.919 201.278 249.066 207.459 246.647C207.459 246.647 207.873 254.952 208.554 256.741C209.235 258.53 211.331 269.166 210.036 271.856C208.741 274.546 204.923 278.236 202.426 278.236C199.93 278.236 194.109 272.288 193.922 269.129C193.905 264.782 194.137 260.436 194.616 256.111C194.91 254.446 194.817 245.919 194.817 245.919Z" fill="#181816"/>
<path d="M238.738 217.946C238.404 219.18 239.713 229.508 239.713 229.508L227.884 229.409L226.843 210.567L238.738 217.946Z" fill="#FBC76F"/>
<path d="M249.298 231.902C245.133 230.285 241.288 228.459 238.618 224.918C238.162 225.947 237.434 226.854 236.501 227.557C235.569 228.259 234.46 228.735 233.278 228.94C232.029 229.158 230.743 229.116 229.513 228.817H229.046V228.694C228.556 228.513 228.104 228.254 227.711 227.929C226.963 231.297 227.804 236.862 228.819 237.677C230.087 238.701 237.056 240.009 237.056 240.009L235.921 237.393L242.69 241.243C245.533 242.859 254.037 244.426 258.71 242.415C259.72 242.087 260.563 241.422 261.073 240.552C260.325 234.37 254.251 233.814 249.298 231.902Z" fill="#181816"/>
<path d="M176.06 248.597C184.76 248.597 191.813 244.73 191.813 239.959C191.813 235.189 184.76 231.322 176.06 231.322C167.36 231.322 160.307 235.189 160.307 239.959C160.307 244.73 167.36 248.597 176.06 248.597Z" fill="#E0831E"/>
<path d="M160.307 238.146V240.083H191.813V238.503" fill="#E0831E"/>
<path d="M176.06 247.017C184.76 247.017 191.813 243.15 191.813 238.38C191.813 233.61 184.76 229.742 176.06 229.742C167.36 229.742 160.307 233.61 160.307 238.38C160.307 243.15 167.36 247.017 176.06 247.017Z" fill="#FFAE45"/>
<path d="M176.073 184.371H176.06C174.865 184.371 173.897 185.266 173.897 186.37V235.789C173.897 236.893 174.865 237.788 176.06 237.788H176.073C177.268 237.788 178.236 236.893 178.236 235.789V186.37C178.236 185.266 177.268 184.371 176.073 184.371Z" fill="#946C62"/>
<path d="M176.06 185.975C192.273 185.975 205.416 178.766 205.416 169.873C205.416 160.979 192.273 153.77 176.06 153.77C159.847 153.77 146.703 160.979 146.703 169.873C146.703 178.766 159.847 185.975 176.06 185.975Z" fill="#E0831E"/>
<path d="M146.703 166.492V170.107H205.416V167.158" fill="#E0831E"/>
<path d="M176.06 183.026C192.273 183.026 205.416 175.817 205.416 166.924C205.416 158.03 192.273 150.821 176.06 150.821C159.847 150.821 146.703 158.03 146.703 166.924C146.703 175.817 159.847 183.026 176.06 183.026Z" fill="#FFAE45"/>
<path d="M178.757 165.356C178.757 165.356 199.182 179.115 220.929 183.594L225.348 217.848C225.348 217.848 228.432 219.97 239.846 217.848C239.846 217.848 246.401 179.497 237.323 161.087C231.436 149.18 186.593 147.218 186.593 147.218" fill="#204A51"/>
<path d="M158.104 171.81C158.104 171.81 171.174 164.147 177.528 161.173L195.591 151.388L186.78 146.107L157.53 150.623C158.571 153.622 150.121 161.531 158.104 171.81Z" fill="#204A51"/>
<path d="M211.037 98.3915C211.037 98.3915 213.293 91.9751 213.106 89.1988C212.919 86.4225 211.25 82.3875 213.106 81.5361C214.962 80.6847 217.231 86.5582 217.231 86.5582C217.231 86.5582 222.865 75.6627 224.56 76.3537C225.088 76.6502 225.527 77.0641 225.837 77.5577C226.147 78.0513 226.319 78.6088 226.336 79.1794C226.336 79.1794 228.138 76.4401 228.832 77.5753C229.199 78.6852 229.199 79.8709 228.832 80.9809C228.832 80.9809 230.501 81.2523 230.701 82.2148C230.902 83.1773 228.285 87.2862 228.285 87.2862C228.669 87.3354 229.024 87.5038 229.291 87.7639C229.558 88.0241 229.721 88.3604 229.754 88.7176C229.847 89.9515 219.14 99.8229 219.14 99.8229" fill="#FBC76F"/>
<path d="M182.895 96.6887C182.895 96.6887 192.307 103.883 195.951 109.386C199.596 114.889 211.517 94.8749 211.517 94.8749C211.517 94.8749 219.808 97.3427 222.451 98.4286C225.094 99.5144 209.101 133.41 197.98 132.25C186.86 131.09 187.3 129.079 187.3 129.079" fill="#68E1FD"/>
<path d="M157.53 150.623C167.649 152.203 177.929 151.117 186.793 146.107C188.128 131.584 189.223 117.073 187.527 102.488C187.512 102.373 187.512 102.257 187.527 102.143C186.541 99.9736 184.941 98.0898 182.895 96.6888C177.742 93.4806 169.345 95.0476 164.365 97.4785C163.161 98.0767 162.033 98.7968 161.001 99.6255C155.501 116.234 157.717 133.497 157.53 150.623Z" fill="#68E1FD"/>
<path d="M177.074 89.8405L167.943 88.076L167.182 97.4044C167.182 97.4044 174.071 103.92 180.866 103.019L178.89 95.2451C178.065 93.5129 177.456 91.6997 177.074 89.8405Z" fill="#FCBB5B"/>
<path d="M177.288 90.7165C174.302 89.486 171.163 88.5992 167.943 88.0759L167.703 93.172C167.703 93.172 174.538 97.8116 178.596 94.517C178.051 93.2846 177.613 92.0137 177.288 90.7165V90.7165Z" fill="#DB9231"/>
<path d="M183.669 79.71C183.669 79.71 189.757 76.292 188.542 73.1702C187.327 70.0484 182.588 69.197 182.588 69.197C182.588 69.197 181.84 65.2114 178.329 64.7425C174.818 64.2736 168.757 66.9266 168.757 66.9266C168.757 66.9266 163.497 66.47 161.642 69.197C159.786 71.9239 160.454 76.8103 160.454 76.8103C160.454 76.8103 164.846 89.1495 166.795 89.4086C168.744 89.6677 173.55 85.1886 173.55 85.1886" fill="#204A51"/>
<path d="M183.749 75.8355C183.749 75.8355 185.191 92.1232 177.689 93.1968C170.186 94.2703 167.009 84.8184 167.009 84.8184C167.009 84.8184 162.47 80.9069 165.313 80.0431C168.157 79.1794 168.584 80.6354 168.584 80.6354C168.584 80.6354 165.794 74.762 168.717 74.762C171.641 74.762 180.065 79.1794 183.749 75.8355Z" fill="#FBC76F"/>
<path d="M167.182 94.7885C167.182 94.7885 170.76 97.8979 173.109 98.0954L176.741 99.9216L179.744 102.809V98.7987C179.744 98.7987 178.85 95.1833 178.997 95.2203C179.144 95.2573 182.254 99.8599 182.254 99.8599L185.245 104.475L180.879 104.08L178.97 107.029C178.97 107.029 168.13 102.562 164.285 97.4784L167.182 94.7885Z" fill="white"/>
<path d="M225.815 78.5007C223.902 81.5608 222.055 84.6662 220.275 87.8168C220.048 88.224 220.716 88.5819 220.942 88.1747C222.722 85.0158 224.583 81.9063 226.523 78.8462C226.572 78.7595 226.583 78.6581 226.551 78.5644C226.52 78.4707 226.45 78.3923 226.356 78.3465C226.262 78.3007 226.152 78.2912 226.051 78.3201C225.95 78.349 225.865 78.414 225.815 78.5007V78.5007Z" fill="#204A51"/>
<path d="M228.285 80.6354L223.185 89.2729C222.945 89.6677 223.612 90.0256 223.853 89.6307L228.953 80.9933C229.193 80.5984 228.525 80.2406 228.285 80.6354Z" fill="#204A51"/>
<path d="M227.925 87.1999C226.911 88.2832 226.017 89.4571 225.255 90.7042C225.213 90.7853 225.206 90.878 225.235 90.9637C225.263 91.0494 225.326 91.122 225.41 91.1671C225.494 91.2121 225.593 91.2263 225.688 91.2069C225.783 91.1874 225.867 91.1357 225.922 91.062C226.644 89.8641 227.494 88.7357 228.459 87.6935C228.792 87.348 228.285 86.842 227.925 87.1999Z" fill="#204A51"/>
<path d="M217.979 87.533C217.538 87.3233 217.151 87.9279 217.592 88.15C218.771 88.8371 219.723 89.8105 220.345 90.9637C220.966 92.117 221.233 93.4059 221.116 94.6898C221.133 94.7718 221.18 94.8458 221.249 94.8991C221.319 94.9523 221.406 94.9815 221.497 94.9815C221.587 94.9815 221.674 94.9523 221.744 94.8991C221.813 94.8458 221.86 94.7718 221.877 94.6898C222 93.2811 221.702 91.8682 221.014 90.6058C220.327 89.3435 219.277 88.2804 217.979 87.533V87.533Z" fill="#204A51"/>
<path d="M161.001 99.6255C157.206 101.874 154.127 105.018 152.083 108.732C148.959 114.692 140.242 141.678 150.481 145.54C160.721 149.402 178.516 140.604 178.516 140.604L177.448 126.229L162.109 128.265" fill="#68E1FD"/>
<path d="M180.759 114.914C180.625 115.37 176.06 141.727 176.06 141.727L194.122 137.26L197.954 110.324L180.759 114.914Z" fill="#FF7F5C"/>
<path d="M173.63 127.845C173.63 127.845 176.821 120.294 178.463 120.763C180.105 121.231 179.611 125.081 179.611 125.081C179.611 125.081 187.781 121.38 189.944 123.082C192.106 124.785 186.673 129.104 185.218 130.017C183.763 130.93 174.324 134.175 174.324 134.175L173.63 127.845Z" fill="#FBC76F"/>
<path d="M157.53 146.515C162.841 145.408 168.086 144.045 173.243 142.43C173.243 142.43 174.658 134.879 174.725 135.113C174.792 135.348 174.538 144.812 173.884 145.466C173.23 146.12 157.53 150.623 157.53 150.623V146.515Z" fill="#363942"/>
<path d="M158.104 171.81C158.104 171.81 173.897 186.37 188.409 192.54L187.074 236.122C187.074 236.122 196.071 242.896 207.472 240.774C207.472 240.774 213.24 192.503 209.488 179.88C205.737 167.257 180.919 156.645 180.919 156.645" fill="#204A51"/>
<path d="M277.186 129.795L301.002 110.274L317.022 148.032L295.022 167.479L277.186 129.795Z" fill="white"/>
<path d="M318.825 111.767C317.91 110.728 317.212 109.539 316.769 108.263C316.128 106.893 315.634 105.462 314.886 104.142C314.473 103.414 314.085 101.674 313.084 101.55C312.71 101.489 312.31 102.451 312.23 102.71C312.02 103.371 312.02 104.073 312.23 104.734C312.516 105.603 312.739 106.49 312.897 107.387C312.897 107.387 306.222 101.859 304.567 101.661C302.912 101.464 303.232 103.229 303.232 103.229C303.232 103.229 301.35 101.995 300.442 102.76C299.534 103.525 300.882 105.376 300.882 105.376C300.882 105.376 299.013 106.498 300.001 107.658C300.989 108.818 306.596 111.644 306.596 111.644C306.596 111.644 302.591 110.743 301.683 111.298C300.776 111.854 301.229 113.088 302.818 113.643C304.407 114.198 308.385 115.185 308.385 115.185C308.385 115.185 314.993 117.246 317.73 117.813C320.467 118.381 329.959 123.983 329.959 123.983L331.16 115.975C330.546 115.901 320.026 112.816 318.825 111.767Z" fill="#FE6162"/>
<path d="M348.889 117.394L320.053 108.88C320.053 108.88 313.778 116.37 315.794 121.083L328.41 127.438" fill="#68E1FD"/>
<path opacity="0.35" d="M348.889 117.394L320.053 108.88C320.053 108.88 313.778 116.37 315.794 121.083L328.41 127.438" fill="#204A51"/>
<path d="M353.775 286.762L360.05 285.158L359.062 278.088C359.062 278.088 352.28 279.136 353.775 286.762Z" fill="#42210B"/>
<path d="M362.332 266.205C362.332 266.205 364.548 290.106 363.948 290.377C363.347 290.649 357.273 291.13 357.273 290.723C357.273 290.316 356.912 279.852 356.912 279.852C356.912 279.852 353.895 284.467 353.735 286.774C353.735 286.774 346.526 282.974 345.178 279.926C343.829 276.878 348.262 264.12 349.944 263.429" fill="#7F252B"/>
<path d="M338.249 299.286L345.351 292.315L340.719 286.885C340.719 286.885 336.42 295.683 338.249 299.286Z" fill="#42210B"/>
<path d="M348.809 271.646L352.133 300.323C352.133 300.323 346.793 302.001 345.792 301.878C344.45 301.445 343.161 300.883 341.947 300.199L340.759 290.637C340.759 290.637 337.675 293.487 338.236 299.274C338.236 298.879 333.336 297.374 332.695 297.115C330.717 296.316 328.818 295.358 327.022 294.252C325.139 293.018 318.117 287.7 321.882 285.614C325.086 283.801 335.472 284.677 335.472 284.677L335.619 272.843" fill="#7F252B"/>
<path d="M361.224 168.923C361.2 168.821 361.201 168.715 361.227 168.614C361.254 168.513 361.305 168.419 361.377 168.339C361.45 168.259 361.541 168.195 361.644 168.153C361.747 168.111 361.859 168.091 361.972 168.096C361.269 165.576 360.09 163.19 358.488 161.05L328.41 157.78C328.41 157.78 322.376 177.622 320.053 211.801C318.251 238.306 332.322 277.717 332.322 277.717C332.322 277.717 346.886 281.135 353.882 274.485L353.601 268.771C357.227 268.747 360.846 268.475 364.428 267.957C368.073 235.036 365.336 201.671 361.224 168.923Z" fill="#8CC63F"/>
<path d="M354.75 272.942L350.985 248.387C349.783 240.564 347.941 232.519 347.901 224.585C347.861 216.651 350.798 209.543 352.226 201.979C353.578 194.645 353.923 187.183 353.254 179.769C353.108 178.041 350.424 178.029 350.584 179.769C351.331 188.045 350.778 196.379 348.942 204.509C347.26 211.777 344.937 218.674 345.258 226.238C345.578 233.802 347.234 241.526 348.435 249.103L352.2 273.658C352.44 275.385 355.017 274.645 354.75 272.942Z" fill="#42210B"/>
<path d="M309.934 153.363C310.032 153.086 310.032 152.788 309.934 152.511H310.121C310.444 152.562 310.777 152.5 311.055 152.339L311.349 152.413C313.004 152.894 313.685 150.488 312.03 149.945C310.695 149.562 309.36 149.217 308.025 148.884H307.904C305.176 147.946 302.395 147.142 299.574 146.477C298.684 146.181 297.767 145.91 296.824 145.663H296.73C294.286 144.861 291.758 144.295 289.188 143.973C287.773 143.825 286.024 143.8 285.183 145.095C285.124 145.189 285.093 145.296 285.093 145.404C285.093 145.512 285.124 145.619 285.183 145.712C285.663 146.391 286.424 146.44 287.265 146.663L289.829 147.329C288.812 147.524 287.816 147.8 286.851 148.156C285.782 148.328 284.78 148.753 283.941 149.39C283.719 149.591 283.58 149.858 283.549 150.144C283.517 150.43 283.594 150.718 283.768 150.957C283.869 151.109 284.006 151.24 284.168 151.339C283.706 151.567 283.361 151.955 283.209 152.417C283.056 152.88 283.108 153.38 283.354 153.807C283.523 154.084 283.77 154.313 284.068 154.471C284.367 154.63 284.705 154.711 285.049 154.708C284.681 154.917 284.392 155.226 284.22 155.592C284.048 155.958 284.002 156.365 284.088 156.756C284.342 157.509 285.143 157.706 285.97 157.706C285.883 157.876 285.839 158.062 285.841 158.25C285.844 158.438 285.893 158.622 285.984 158.79C286.075 158.958 286.207 159.104 286.369 159.218C286.531 159.332 286.719 159.41 286.918 159.446C288.566 159.744 290.275 159.439 291.684 158.595C291.769 158.548 291.842 158.485 291.898 158.409C293.126 158.31 294.334 158.057 295.489 157.657C296.01 157.447 296.544 157.213 297.078 157.015L298.012 156.67C298.159 156.67 298.733 156.312 298.866 156.361L304.206 158.298C305.662 158.817 308.211 160.384 309.827 159.866C311.442 159.347 310.775 156.916 309.133 157.398C309.48 157.287 308.759 157.225 308.559 157.151L307.077 156.62C308.432 157.122 309.876 157.39 311.335 157.41C311.606 157.417 311.873 157.347 312.1 157.211C312.327 157.074 312.504 156.877 312.606 156.645C312.709 156.413 312.733 156.158 312.676 155.914C312.618 155.669 312.481 155.446 312.283 155.275C311.562 154.576 310.776 153.936 309.934 153.363V153.363Z" fill="#FE6162"/>
<path d="M348.889 117.394C348.889 117.394 332.175 117.394 326.394 127.117C321.548 135.273 322.456 148.896 322.456 148.896L303.205 147.489C303.205 147.489 297.678 149.624 299.053 156.04C299.801 159.532 318.905 161.149 329.451 163.567C339.998 165.986 359.035 166.689 362.025 160.803C365.016 154.917 364.695 131.189 361.158 124.415C357.62 117.641 348.889 117.394 348.889 117.394Z" fill="#68E1FD"/>
<path d="M347.1 116.246C347.1 116.246 340.425 120.972 336.273 118.11C332.121 115.247 333.123 102.895 333.123 102.895C333.123 102.895 335.245 99.1936 343.122 103.833C350.998 108.473 347.1 116.246 347.1 116.246Z" fill="#FE6162"/>
<path d="M349.77 117.9L349.596 117.604L345.405 118.838L345.324 119.035C346.833 118.628 348.315 118.245 349.77 117.9Z" fill="#7F252B"/>
<path d="M356.619 102.649C356.06 99.6879 354.532 96.9571 352.24 94.8255C348.836 91.9011 343.589 91.9258 339.397 93.1597C337.216 93.731 335.264 94.8825 333.786 96.4709C332.307 98.0593 331.366 100.014 331.08 102.093C330.159 106.758 336.06 103.882 337.368 106.548C338.118 108.094 338.36 109.811 338.062 111.483C337.621 114.26 335.833 116.937 336.1 119.8C336.121 120.495 336.33 121.174 336.708 121.775C337.086 122.377 337.62 122.881 338.262 123.243C341.898 123.552 345.56 123.494 349.183 123.07C352.013 122.873 357.727 122.65 358.741 119.467C359.929 115.666 356.619 102.649 356.619 102.649Z" fill="#7F252B"/>
<path style="mix-blend-mode:multiply" opacity="0.63" d="M451.644 243.575C462.631 236.813 473.805 230.298 484.912 223.721L469.132 213.072L408.029 236.652C415.412 240.231 425.384 246.931 435.878 253.755C441.084 250.312 446.304 246.857 451.644 243.575Z" fill="url(#paint6_linear_12_86)"/>
<path d="M490.893 186C490.802 185.651 490.634 185.323 490.399 185.038C489.968 184.552 489.454 184.136 488.877 183.804C481.121 178.954 470.374 177.634 462.177 182.36C460.308 183.446 457.518 185.901 458.626 188.221C459.267 189.566 461.216 190.356 462.631 190.899C467.121 192.537 471.81 193.664 476.595 194.255C478.331 194.526 480.093 194.798 481.842 194.946C483.051 195.054 484.271 194.878 485.389 194.436C486.506 193.994 487.485 193.3 488.236 192.416C489.491 190.936 491.454 188.085 490.893 186Z" fill="#754C24"/>
<path d="M458.412 187.135C458.412 187.135 465.488 193.058 477.716 192.194C489.945 191.331 490.893 186.025 490.893 186.025C490.893 186.025 487.729 223.487 486.06 224.128C484.391 224.77 478.144 227.558 475.127 227.768C472.109 227.978 462.578 224.449 462.337 223.474C462.097 222.499 458.412 187.135 458.412 187.135Z" fill="#68E1FD"/>
<path d="M460.642 132.534C460.268 131.831 459.107 132.448 459.494 133.151C467.864 148.748 469.493 166.307 471.001 183.359C471.068 184.137 472.403 184.149 472.336 183.359C470.814 166.072 469.119 148.341 460.642 132.534Z" fill="#007F68"/>
<path d="M459.574 132.682C459.574 132.682 461.91 140.777 459.494 144.824C457.077 148.871 455.088 149.673 457.972 154.695C460.855 159.717 468.572 160.396 469.079 164.246C469.586 168.096 465.381 139.555 459.574 132.682Z" fill="#007F68"/>
<path d="M486.34 147.292C479.894 159.753 476.26 173.297 475.661 187.098C475.661 188.061 477.249 188.048 477.289 187.098C477.855 173.559 481.393 160.268 487.689 148.032C488.196 147.181 486.781 146.428 486.34 147.292Z" fill="#007F68"/>
<path d="M487.475 151.24C487.475 150.426 487.275 148.773 487.368 147.403L486.434 147.946C483.257 155.09 478.504 171.872 477.089 177.005C479.025 173.155 486.941 172.624 489.264 167.133C490.289 164.803 490.337 162.202 489.398 159.841C488.252 157.091 487.603 154.185 487.475 151.24V151.24Z" fill="#007F68"/>
<defs>
<linearGradient id="paint0_linear_12_86" x1="153.392" y1="260.22" x2="168.105" y2="234.516" gradientUnits="userSpaceOnUse">
<stop stop-color="white" stop-opacity="0"/>
<stop offset="0.99" stop-color="#754C24"/>
</linearGradient>
<linearGradient id="paint1_linear_12_86" x1="306.476" y1="322.213" x2="330.602" y2="280.05" gradientUnits="userSpaceOnUse">
<stop stop-color="white" stop-opacity="0"/>
<stop offset="0.99" stop-color="#754C24"/>
</linearGradient>
<linearGradient id="paint2_linear_12_86" x1="259.057" y1="261.294" x2="283.277" y2="218.952" gradientUnits="userSpaceOnUse">
<stop stop-color="white" stop-opacity="0"/>
<stop offset="0.99" stop-color="#754C24"/>
</linearGradient>
<linearGradient id="paint3_linear_12_86" x1="226.189" y1="234.111" x2="244.432" y2="202.222" gradientUnits="userSpaceOnUse">
<stop stop-color="white" stop-opacity="0"/>
<stop offset="0.99" stop-color="#754C24"/>
</linearGradient>
<linearGradient id="paint4_linear_12_86" x1="162.243" y1="295.807" x2="187.569" y2="251.56" gradientUnits="userSpaceOnUse">
<stop stop-color="white" stop-opacity="0"/>
<stop offset="0.99" stop-color="#754C24"/>
</linearGradient>
<linearGradient id="paint5_linear_12_86" x1="212.706" y1="269.833" x2="238.02" y2="225.588" gradientUnits="userSpaceOnUse">
<stop stop-color="white" stop-opacity="0"/>
<stop offset="0.99" stop-color="#754C24"/>
</linearGradient>
<linearGradient id="paint6_linear_12_86" x1="439.001" y1="235.752" x2="468.487" y2="210.036" gradientUnits="userSpaceOnUse">
<stop stop-color="white" stop-opacity="0"/>
<stop offset="0.99" stop-color="#754C24"/>
</linearGradient>
</defs>
</svg>
