<svg width="520" height="372" viewBox="0 0 520 372" fill="none" xmlns="http://www.w3.org/2000/svg">
<path d="M247.806 354.208L14.17 223.141C6.73401 219.18 0.351003 212.665 7.60501 208.408L242.086 80.0802C245.609 78.0072 250.952 76.6498 254.527 78.6241L499.785 213.776C507.221 217.872 508.56 229.323 501.085 233.432L278.603 353.998C273.932 356.571 268.635 357.943 263.234 357.98C257.833 358.017 252.516 356.717 247.806 354.208Z" fill="#16A79E"/>
<path style="mix-blend-mode:multiply" opacity="0.63" d="M164.645 229.73L132.34 246.783L157.898 262.084L183.456 247.499C180.921 245.944 167.206 231.26 164.645 229.73Z" fill="url(#paint0_linear_14_205)"/>
<path style="mix-blend-mode:multiply" opacity="0.63" d="M313.456 285.577L275.431 303.519L308.542 321.46L354.406 290.353C350.298 287.848 317.603 288.045 313.456 285.577Z" fill="url(#paint1_linear_14_205)"/>
<path style="mix-blend-mode:multiply" opacity="0.63" d="M288.769 217.724L236.444 245.352L257.4 259.147L297.388 232.223C293.319 229.705 292.916 220.192 288.769 217.724Z" fill="url(#paint2_linear_14_205)"/>
<path style="mix-blend-mode:multiply" opacity="0.63" d="M245.336 203.275L208.936 222.487L223.6 232.124L257.036 206.718C254.124 204.978 248.222 205.039 245.336 203.275Z" fill="url(#paint3_linear_14_205)"/>
<path style="mix-blend-mode:multiply" opacity="0.63" d="M193.271 248.597L140.946 276.224L167.336 295.819L200.031 277.002C195.923 274.534 197.431 251.065 193.271 248.597Z" fill="url(#paint4_linear_14_205)"/>
<path style="mix-blend-mode:multiply" opacity="0.63" d="M252.759 239.059C249.283 238.451 245.862 237.584 242.528 236.467C238.511 235.085 234.169 233.099 231.738 229.693L191.373 251.003L217.763 270.647L254.306 240.502C253.705 240.11 253.182 239.622 252.759 239.059Z" fill="url(#paint5_linear_14_205)"/>
<path d="M302.055 201.017C300.482 201.017 298.285 202.596 296.855 203.263L292.955 205.101C292.955 205.101 290.355 214.38 288.834 217.773C287.313 221.167 281.931 228.595 283.816 231.347C285.108 233.054 287.035 234.231 289.207 234.642C291.379 235.052 293.634 234.663 295.516 233.555C300.469 230.976 300.326 222.376 302.133 219.032C303.615 216.268 302.926 210.395 302.926 209.161C302.998 206.422 302.705 203.686 302.055 201.017Z" fill="#181816"/>
<path d="M261.3 184.186C259.727 184.186 257.53 185.766 256.1 186.432L252.2 188.27C252.2 188.27 250.9 198.376 248.079 200.943C245.258 203.509 234.806 208.951 236.691 211.715C237.891 213.436 239.744 214.653 241.864 215.113C243.985 215.572 246.21 215.239 248.079 214.183C253.032 211.604 256.282 206.31 259.779 204.965C262.821 203.818 261.534 196.328 261.651 193.86C262 190.635 261.882 187.38 261.3 184.186Z" fill="#181816"/>
<path d="M254.228 89.6553C254.228 89.6553 247.468 123.81 248.079 142.541C248.69 161.272 249.028 184.211 250.536 194.366C250.536 194.366 263.614 196.093 268.047 192.379C268.047 192.379 269.347 126.735 269.451 127.105C271.453 135.742 280.852 179.991 281.853 182.878C282.854 185.765 287.677 209.087 287.677 209.087C290.827 209.827 294.104 209.945 297.304 209.433C300.504 208.922 303.559 207.792 306.28 206.113C306.28 206.113 304.655 172.513 301.626 163.086C298.597 153.659 288.028 94.2949 282.893 89.6553" fill="#68E1FD"/>
<path d="M254.228 89.6553C254.228 89.6553 247.468 123.81 248.079 142.541C248.69 161.272 249.028 184.211 250.536 194.366C250.536 194.366 263.614 196.093 268.047 192.379C268.047 192.379 269.347 126.735 269.451 127.105C271.453 135.742 280.852 179.991 281.853 182.878C282.854 185.765 287.677 209.087 287.677 209.087C290.827 209.827 294.104 209.945 297.304 209.433C300.504 208.922 303.559 207.792 306.28 206.113C306.28 206.113 304.655 172.513 301.626 163.086C298.597 153.659 288.028 94.2949 282.893 89.6553" fill="#68E1FD"/>
<path d="M282.555 92.4071C282.555 92.4071 294.125 60.4732 289.445 53.1683C284.765 45.8635 266.045 40.1135 257.049 40.8291C248.053 41.5448 253.825 92.0122 255.242 92.3824C256.659 92.7525 269.932 101.415 282.555 92.4071Z" fill="#F7931E"/>
<path d="M286.377 49.8861L272.337 44.3582C269.789 56.0722 267.146 67.7615 264.407 79.4262L284.011 82.6961C284.011 82.6961 295.711 76.6005 297.479 66.9266C299.247 57.2526 286.91 50.3303 286.377 49.8861Z" fill="#F7931E"/>
<path d="M258.076 60.0783C258.076 60.0783 256.204 42.6306 256.204 41.1006C250.744 42.5842 245.641 45.0609 241.176 48.3931C238.894 50.0731 236.771 51.9393 234.832 53.9704C233.499 55.1624 232.395 56.5653 231.569 58.1164C230.992 59.9577 230.934 61.9106 231.4 63.7801C232.266 68.1089 233.812 72.2893 235.989 76.181C238.274 80.7153 241.096 84.9876 244.4 88.915C245.427 90.149 248.742 94.5541 250.9 93.8507C255.229 92.4194 257.036 87.6811 257.036 87.6811C257.036 87.6811 255.034 83.9794 252.876 79.3275C251.576 76.5882 245.843 70.3815 245.076 66.1369C245.644 65.4095 246.261 64.7171 246.922 64.0639C249.769 61.3739 254.527 61.8305 258.076 60.0783Z" fill="#F7931E"/>
<path d="M259.714 42.0877L262.6 55.8213L266.5 51.4038L269.529 56.9071L277.641 46.4558C277.641 46.4558 265.2 40.9525 259.714 42.0877Z" fill="#ED6B00"/>
<path d="M275.327 35.9551C273.221 38.1762 269.165 37.189 266.5 36.5968C263.263 35.9058 259.545 34.0425 259.831 30.4272C259.831 29.8719 258.973 29.8842 258.921 30.4272C258.622 34.24 262.275 36.5968 265.746 37.3618C268.827 38.0898 273.546 39.2003 275.951 36.6091C276.354 36.1526 275.717 35.5356 275.327 35.9551Z" fill="#009245"/>
<path d="M258.076 28.058C258.076 28.058 258.076 46.7026 265.278 47.9242C273.195 49.2568 277.654 40.7181 277.654 40.7181C277.654 40.7181 278.668 24.2452 270.803 22.7892C262.938 21.3331 258.297 25.6766 258.076 28.058Z" fill="#FBB5AD"/>
<path d="M272.064 38.8672C272.064 38.8672 273.975 31.7105 276.081 34.0672C278.187 36.424 272.662 41.6312 272.662 41.6312" fill="#FBB5AD"/>
<path d="M273.988 20.4818C273.988 20.4818 281.021 21.1974 283.088 26.5156C285.155 31.8338 279.851 42.4085 276.081 44.099L280.644 34.8199L280.423 28.5022L273.988 20.4818Z" fill="#5C2E2E"/>
<path d="M282.945 28.8971C282.373 25.1953 279.773 23.3691 276.38 21.4936C276.102 21.3373 275.821 21.1933 275.535 21.0617C276.188 20.5536 276.712 19.9126 277.069 19.1861C277.114 19.1117 277.139 19.0273 277.139 18.9413C277.14 18.8553 277.116 18.7707 277.071 18.6959C277.027 18.6211 276.962 18.5587 276.884 18.5148C276.807 18.4709 276.718 18.4471 276.627 18.4458C276.184 18.4634 275.75 18.5679 275.352 18.7527C274.953 18.9374 274.6 19.1984 274.313 19.5193C273.915 18.7531 273.379 18.0597 272.727 17.471C272.663 17.4124 272.584 17.3704 272.498 17.3489C272.413 17.3274 272.322 17.3271 272.237 17.3482C272.15 17.3692 272.071 17.4108 272.007 17.469C271.942 17.5273 271.895 17.6001 271.869 17.6807C271.716 18.0411 271.647 18.4292 271.67 18.8174C271.692 19.2056 271.804 19.5843 271.999 19.9265C268.454 19.2157 264.759 19.7507 261.599 21.4319C260.446 22.0729 259.467 22.9601 258.739 24.0231C257.778 23.9302 256.809 24.097 255.944 24.5043C255.024 24.9223 254.273 25.6133 253.804 26.4727C253.334 27.332 253.174 28.313 253.344 29.2673C253.851 31.5007 256.36 32.2534 258.544 31.8955C259.608 31.6745 260.595 31.2036 261.417 30.5259C260.78 31.55 260.455 32.8456 262.535 33.2898C266.136 34.0796 267.852 32.0559 268.073 33.7464C268.255 35.1407 270.283 35.9181 271.752 35.9428C271.856 36.1525 272.129 36.7202 272.454 37.4975C273.183 37.2671 273.964 37.2245 274.716 37.3741C274.773 37.3123 274.845 37.2643 274.927 37.2343C275.008 37.2042 275.095 37.1929 275.181 37.2014C275.268 37.2098 275.351 37.2378 275.424 37.2828C275.497 37.3279 275.557 37.3888 275.6 37.4605C276.9 39.4965 276.562 41.7175 276.081 44.062C278.028 42.4741 279.63 40.5421 280.8 38.3736C282.482 35.4838 283.228 32.1874 282.945 28.8971ZM272.714 18.9023L272.87 19.1121C272.861 19.1652 272.861 19.2194 272.87 19.2725C272.87 19.4329 272.987 19.581 273.065 19.7414C272.874 19.4948 272.754 19.2059 272.714 18.9023Z" fill="#5C2E2E"/>
<path d="M263.601 54.649L265.72 58.5729L268.697 55.3153L266.552 51.4038L263.601 54.649Z" fill="#723100"/>
<path d="M265.72 58.5729C265.72 58.5729 268.697 78.3157 271.336 91.2595L267.436 98.1571L262.6 92.3083C262.6 92.3083 260.52 78.8092 265.72 58.5729Z" fill="#723100"/>
<path d="M266.149 92.37L263.354 63.5333L242.45 63.9898L245.375 92.37H266.149Z" fill="#68E1FD"/>
<path d="M273.273 81.0179L264.173 74.5768V77.0447C264.173 77.0447 255.944 73.5527 255.541 75.0828C255.086 76.7979 256.607 81.6966 258.011 82.1655C259.415 82.6343 265.213 84.3989 265.213 84.3989L269.802 85.7808L273.273 81.0179Z" fill="#FBB5AD"/>
<path d="M297.557 63.5333C297.557 63.5333 303.472 85.2133 299.403 89.6677C295.334 94.1222 268.931 89.2975 268.684 87.0518C268.437 84.8061 272.051 77.5136 272.051 77.5136L286.793 79.0437" fill="#F7931E"/>
<path d="M252.564 92.37C252.564 92.37 258.076 91.4816 259.181 94.3813C259.766 95.9114 255.515 94.3813 255.515 94.3813L252.499 102.895C251.585 101.821 251.077 100.488 251.056 99.1072C251.036 97.1571 251.224 95.2101 251.615 93.2955L252.564 92.37Z" fill="#FBB5AD"/>
<path d="M201.214 237.751C200.785 238.911 201.214 249.349 201.214 249.349L189.748 248.362L190.346 229.508L201.214 237.751Z" fill="#FBC76F"/>
<path d="M189.709 245.919C189.709 245.919 196.001 249.066 202.02 246.647C202.02 246.647 202.423 254.952 203.086 256.741C203.749 258.53 205.79 269.166 204.529 271.856C203.268 274.546 199.55 278.236 197.119 278.236C194.688 278.236 189.02 272.288 188.838 269.129C188.821 264.782 189.047 260.436 189.514 256.111C189.8 254.446 189.709 245.919 189.709 245.919Z" fill="#181816"/>
<path d="M232.479 217.946C232.154 219.18 233.428 229.508 233.428 229.508L221.91 229.409L220.896 210.567L232.479 217.946Z" fill="#FBC76F"/>
<path d="M242.762 231.902C238.706 230.285 234.962 228.459 232.362 224.918C231.918 225.947 231.209 226.854 230.301 227.557C229.393 228.259 228.313 228.735 227.162 228.94C225.946 229.158 224.694 229.116 223.496 228.817H223.041V228.694C222.564 228.513 222.124 228.254 221.741 227.929C221.013 231.297 221.832 236.862 222.82 237.677C224.055 238.701 230.841 240.009 230.841 240.009L229.736 237.393L236.327 241.243C239.096 242.859 247.377 244.426 251.927 242.415C252.911 242.087 253.732 241.422 254.228 240.552C253.5 234.37 247.585 233.814 242.762 231.902Z" fill="#181816"/>
<path d="M171.444 248.597C179.916 248.597 186.784 244.73 186.784 239.959C186.784 235.189 179.916 231.322 171.444 231.322C162.972 231.322 156.104 235.189 156.104 239.959C156.104 244.73 162.972 248.597 171.444 248.597Z" fill="#E0831E"/>
<path d="M156.104 238.146V240.083H186.784V238.503" fill="#E0831E"/>
<path d="M171.444 247.017C179.916 247.017 186.784 243.15 186.784 238.38C186.784 233.61 179.916 229.742 171.444 229.742C162.972 229.742 156.104 233.61 156.104 238.38C156.104 243.15 162.972 247.017 171.444 247.017Z" fill="#FFAE45"/>
<path d="M171.457 184.371H171.444C170.281 184.371 169.338 185.266 169.338 186.37V235.789C169.338 236.893 170.281 237.788 171.444 237.788H171.457C172.621 237.788 173.563 236.893 173.563 235.789V186.37C173.563 185.266 172.621 184.371 171.457 184.371Z" fill="#946C62"/>
<path d="M171.444 185.975C187.232 185.975 200.031 178.766 200.031 169.873C200.031 160.979 187.232 153.77 171.444 153.77C155.656 153.77 142.857 160.979 142.857 169.873C142.857 178.766 155.656 185.975 171.444 185.975Z" fill="#E0831E"/>
<path d="M142.857 166.492V170.107H200.031V167.158" fill="#E0831E"/>
<path d="M171.444 183.026C187.232 183.026 200.031 175.817 200.031 166.924C200.031 158.03 187.232 150.821 171.444 150.821C155.656 150.821 142.857 158.03 142.857 166.924C142.857 175.817 155.656 183.026 171.444 183.026Z" fill="#FFAE45"/>
<path d="M174.07 165.356C174.07 165.356 193.96 179.115 215.137 183.594L219.44 217.848C219.44 217.848 222.443 219.97 233.558 217.848C233.558 217.848 239.941 179.497 231.101 161.087C225.368 149.18 181.701 147.218 181.701 147.218" fill="#204A51"/>
<path d="M153.959 171.81C153.959 171.81 166.686 164.147 172.874 161.173L190.463 151.388L181.883 146.107L153.4 150.623C154.414 153.622 146.185 161.531 153.959 171.81Z" fill="#204A51"/>
<path d="M205.504 98.3915C205.504 98.3915 207.701 91.9751 207.519 89.1988C207.337 86.4225 205.712 82.3875 207.519 81.5361C209.326 80.6847 211.536 86.5582 211.536 86.5582C211.536 86.5582 217.022 75.6627 218.673 76.3537C219.187 76.6502 219.614 77.0641 219.916 77.5577C220.218 78.0513 220.386 78.6088 220.402 79.1794C220.402 79.1794 222.157 76.4401 222.833 77.5753C223.19 78.6852 223.19 79.8709 222.833 80.9809C222.833 80.9809 224.458 81.2523 224.653 82.2148C224.848 83.1773 222.3 87.2862 222.3 87.2862C222.674 87.3354 223.02 87.5038 223.28 87.7639C223.54 88.0241 223.698 88.3604 223.73 88.7176C223.821 89.9515 213.395 99.8229 213.395 99.8229" fill="#FBC76F"/>
<path d="M178.1 96.6887C178.1 96.6887 187.265 103.883 190.814 109.386C194.363 114.889 205.972 94.8749 205.972 94.8749C205.972 94.8749 214.045 97.3427 216.619 98.4286C219.193 99.5144 203.619 133.41 192.79 132.25C181.961 131.09 182.39 129.079 182.39 129.079" fill="#68E1FD"/>
<path d="M153.4 150.623C163.254 152.203 173.264 151.117 181.896 146.107C183.196 131.584 184.262 117.073 182.611 102.488C182.596 102.373 182.596 102.257 182.611 102.143C181.65 99.9736 180.092 98.0898 178.1 96.6888C173.082 93.4806 164.905 95.0476 160.056 97.4785C158.883 98.0767 157.785 98.7968 156.78 99.6255C151.424 116.234 153.582 133.497 153.4 150.623Z" fill="#68E1FD"/>
<path d="M172.432 89.8405L163.54 88.076L162.799 97.4044C162.799 97.4044 169.507 103.92 176.124 103.019L174.2 95.2451C173.397 93.5129 172.804 91.6997 172.432 89.8405Z" fill="#FCBB5B"/>
<path d="M172.64 90.7165C169.732 89.486 166.676 88.5992 163.54 88.0759L163.306 93.172C163.306 93.172 169.962 97.8116 173.914 94.517C173.383 93.2846 172.956 92.0137 172.64 90.7165Z" fill="#DB9231"/>
<path d="M178.854 79.71C178.854 79.71 184.782 76.292 183.599 73.1702C182.416 70.0484 177.801 69.197 177.801 69.197C177.801 69.197 177.073 65.2114 173.654 64.7425C170.235 64.2736 164.333 66.9266 164.333 66.9266C164.333 66.9266 159.211 66.47 157.404 69.197C155.597 71.9239 156.247 76.8103 156.247 76.8103C156.247 76.8103 160.524 89.1495 162.422 89.4086C164.32 89.6677 169 85.1886 169 85.1886" fill="#204A51"/>
<path d="M178.932 75.8355C178.932 75.8355 180.336 92.1232 173.03 93.1968C165.724 94.2703 162.63 84.8184 162.63 84.8184C162.63 84.8184 158.21 80.9069 160.979 80.0431C163.748 79.1794 164.164 80.6354 164.164 80.6354C164.164 80.6354 161.447 74.762 164.294 74.762C167.141 74.762 175.344 79.1794 178.932 75.8355Z" fill="#FBC76F"/>
<path d="M162.799 94.7885C162.799 94.7885 166.283 97.8979 168.571 98.0954L172.107 99.9216L175.032 102.809V98.7987C175.032 98.7987 174.161 95.1833 174.304 95.2203C174.447 95.2573 177.476 99.8599 177.476 99.8599L180.388 104.475L176.137 104.08L174.278 107.029C174.278 107.029 163.722 102.562 159.978 97.4784L162.799 94.7885Z" fill="white"/>
<path d="M219.895 78.5007C218.032 81.5608 216.233 84.6662 214.5 87.8168C214.279 88.224 214.929 88.5819 215.15 88.1747C216.883 85.0158 218.695 81.9063 220.584 78.8462C220.632 78.7595 220.643 78.6581 220.611 78.5644C220.581 78.4707 220.513 78.3923 220.422 78.3465C220.33 78.3007 220.223 78.2912 220.125 78.3201C220.026 78.349 219.943 78.414 219.895 78.5007Z" fill="#204A51"/>
<path d="M222.3 80.6354L217.334 89.2729C217.1 89.6677 217.75 90.0256 217.984 89.6307L222.95 80.9933C223.184 80.5984 222.534 80.2406 222.3 80.6354Z" fill="#204A51"/>
<path d="M221.949 87.1999C220.962 88.2832 220.091 89.4571 219.349 90.7042C219.309 90.7853 219.302 90.878 219.33 90.9637C219.357 91.0494 219.419 91.122 219.5 91.1671C219.582 91.2121 219.679 91.2263 219.771 91.2069C219.864 91.1874 219.945 91.1357 219.999 91.062C220.702 89.8641 221.53 88.7357 222.469 87.6935C222.794 87.348 222.3 86.842 221.949 87.1999Z" fill="#204A51"/>
<path d="M212.264 87.533C211.835 87.3233 211.458 87.9279 211.887 88.15C213.035 88.8371 213.962 89.8105 214.568 90.9637C215.173 92.117 215.433 93.4059 215.319 94.6898C215.336 94.7718 215.381 94.8458 215.448 94.8991C215.517 94.9523 215.601 94.9815 215.69 94.9815C215.778 94.9815 215.862 94.9523 215.93 94.8991C215.998 94.8458 216.043 94.7718 216.06 94.6898C216.18 93.2811 215.89 91.8682 215.22 90.6058C214.551 89.3435 213.528 88.2804 212.264 87.533Z" fill="#204A51"/>
<path d="M156.78 99.6255C153.084 101.874 150.086 105.018 148.096 108.732C145.054 114.692 136.565 141.678 146.536 145.54C156.507 149.402 173.836 140.604 173.836 140.604L172.796 126.229L157.859 128.265" fill="#68E1FD"/>
<path d="M176.02 114.914C175.89 115.37 171.444 141.727 171.444 141.727L189.033 137.26L192.764 110.324L176.02 114.914Z" fill="#FF7F5C"/>
<path d="M169.078 127.845C169.078 127.845 172.185 120.294 173.784 120.763C175.383 121.231 174.902 125.081 174.902 125.081C174.902 125.081 182.858 121.38 184.964 123.082C187.07 124.785 181.779 129.104 180.362 130.017C178.945 130.93 169.754 134.175 169.754 134.175L169.078 127.845Z" fill="#FBC76F"/>
<path d="M153.4 146.515C158.572 145.408 163.679 144.045 168.701 142.43C168.701 142.43 170.079 134.879 170.144 135.113C170.209 135.348 169.962 144.812 169.325 145.466C168.688 146.12 153.4 150.623 153.4 150.623V146.515Z" fill="#363942"/>
<path d="M153.959 171.81C153.959 171.81 169.338 186.37 183.469 192.54L182.169 236.122C182.169 236.122 190.931 242.896 202.033 240.774C202.033 240.774 207.649 192.503 203.996 179.88C200.343 167.257 176.176 156.645 176.176 156.645" fill="#204A51"/>
<path d="M269.919 129.795L293.111 110.274L308.711 148.032L287.287 167.479L269.919 129.795Z" fill="white"/>
<path d="M310.466 111.767C309.575 110.728 308.896 109.539 308.464 108.263C307.84 106.893 307.359 105.462 306.631 104.142C306.228 103.414 305.851 101.674 304.876 101.55C304.512 101.489 304.122 102.451 304.044 102.71C303.84 103.371 303.84 104.073 304.044 104.734C304.323 105.603 304.54 106.49 304.694 107.387C304.694 107.387 298.194 101.859 296.582 101.661C294.97 101.464 295.282 103.229 295.282 103.229C295.282 103.229 293.449 101.995 292.565 102.76C291.681 103.525 292.994 105.376 292.994 105.376C292.994 105.376 291.174 106.498 292.136 107.658C293.098 108.818 298.558 111.644 298.558 111.644C298.558 111.644 294.658 110.743 293.774 111.298C292.89 111.854 293.332 113.088 294.879 113.643C296.426 114.198 300.3 115.185 300.3 115.185C300.3 115.185 306.735 117.246 309.4 117.813C312.065 118.381 321.308 123.983 321.308 123.983L322.478 115.975C321.88 115.901 311.636 112.816 310.466 111.767Z" fill="#FE6162"/>
<path d="M339.742 117.394L311.662 108.88C311.662 108.88 305.552 116.37 307.515 121.083L319.8 127.438" fill="#68E1FD"/>
<path opacity="0.35" d="M339.742 117.394L311.662 108.88C311.662 108.88 305.552 116.37 307.515 121.083L319.8 127.438" fill="#204A51"/>
<path d="M344.5 286.762L350.61 285.158L349.648 278.088C349.648 278.088 343.044 279.136 344.5 286.762Z" fill="#42210B"/>
<path d="M352.833 266.205C352.833 266.205 354.991 290.106 354.406 290.377C353.821 290.649 347.906 291.13 347.906 290.723C347.906 290.316 347.555 279.852 347.555 279.852C347.555 279.852 344.617 284.467 344.461 286.774C344.461 286.774 337.441 282.974 336.128 279.926C334.815 276.878 339.132 264.12 340.769 263.429" fill="#7F252B"/>
<path d="M329.381 299.286L336.297 292.315L331.786 286.885C331.786 286.885 327.6 295.683 329.381 299.286Z" fill="#42210B"/>
<path d="M339.664 271.646L342.901 300.323C342.901 300.323 337.701 302.001 336.726 301.878C335.419 301.445 334.164 300.883 332.982 300.199L331.825 290.637C331.825 290.637 328.822 293.487 329.368 299.274C329.368 298.879 324.597 297.374 323.973 297.115C322.047 296.316 320.197 295.358 318.448 294.252C316.615 293.018 309.777 287.7 313.443 285.614C316.563 283.801 326.677 284.677 326.677 284.677L326.82 272.843" fill="#7F252B"/>
<path d="M351.754 168.923C351.73 168.821 351.731 168.715 351.757 168.614C351.783 168.513 351.833 168.419 351.903 168.339C351.974 168.259 352.062 168.195 352.163 168.153C352.263 168.111 352.372 168.091 352.482 168.096C351.797 165.576 350.649 163.19 349.089 161.05L319.8 157.78C319.8 157.78 313.924 177.622 311.662 211.801C309.907 238.306 323.609 277.717 323.609 277.717C323.609 277.717 337.792 281.135 344.604 274.485L344.331 268.771C347.861 268.747 351.386 268.475 354.874 267.957C358.423 235.036 355.758 201.671 351.754 168.923Z" fill="#8CC63F"/>
<path d="M345.449 272.942L341.783 248.387C340.613 240.564 338.819 232.519 338.78 224.585C338.741 216.651 341.601 209.543 342.992 201.979C344.308 194.645 344.644 187.183 343.993 179.769C343.851 178.041 341.237 178.029 341.393 179.769C342.12 188.045 341.582 196.379 339.794 204.509C338.156 211.777 335.894 218.674 336.206 226.238C336.518 233.802 338.131 241.526 339.3 249.103L342.966 273.658C343.2 275.385 345.709 274.645 345.449 272.942Z" fill="#42210B"/>
<path d="M301.808 153.363C301.904 153.086 301.904 152.788 301.808 152.511H301.991C302.305 152.562 302.629 152.5 302.9 152.339L303.186 152.413C304.798 152.894 305.461 150.488 303.849 149.945C302.549 149.562 301.249 149.217 299.949 148.884H299.832C297.175 147.946 294.467 147.142 291.72 146.477C290.853 146.181 289.96 145.91 289.042 145.663H288.951C286.571 144.861 284.109 144.295 281.606 143.973C280.228 143.825 278.525 143.8 277.706 145.095C277.649 145.189 277.619 145.296 277.619 145.404C277.619 145.512 277.649 145.619 277.706 145.712C278.174 146.391 278.915 146.44 279.734 146.663L282.231 147.329C281.24 147.524 280.27 147.8 279.331 148.156C278.29 148.328 277.314 148.753 276.497 149.39C276.281 149.591 276.145 149.858 276.115 150.144C276.084 150.43 276.159 150.718 276.328 150.957C276.427 151.109 276.56 151.24 276.718 151.339C276.268 151.567 275.932 151.955 275.784 152.417C275.635 152.88 275.686 153.38 275.925 153.807C276.09 154.084 276.33 154.313 276.621 154.471C276.912 154.63 277.241 154.711 277.576 154.708C277.217 154.917 276.936 155.226 276.769 155.592C276.601 155.958 276.556 156.365 276.64 156.756C276.887 157.509 277.667 157.706 278.473 157.706C278.388 157.876 278.345 158.062 278.347 158.25C278.35 158.438 278.398 158.622 278.486 158.79C278.575 158.958 278.703 159.104 278.861 159.218C279.019 159.332 279.202 159.41 279.396 159.446C281.001 159.744 282.665 159.439 284.037 158.595C284.12 158.548 284.191 158.485 284.245 158.409C285.441 158.31 286.617 158.057 287.742 157.657C288.249 157.447 288.769 157.213 289.289 157.015L290.199 156.67C290.342 156.67 290.901 156.312 291.031 156.361L296.231 158.298C297.648 158.817 300.131 160.384 301.704 159.866C303.277 159.347 302.627 156.916 301.028 157.398C301.366 157.287 300.664 157.225 300.469 157.151L299.026 156.62C300.346 157.122 301.752 157.39 303.173 157.41C303.437 157.417 303.697 157.347 303.918 157.211C304.139 157.074 304.311 156.877 304.41 156.645C304.511 156.413 304.534 156.158 304.479 155.914C304.422 155.669 304.289 155.446 304.096 155.275C303.394 154.576 302.628 153.936 301.808 153.363Z" fill="#FE6162"/>
<path d="M339.742 117.394C339.742 117.394 323.466 117.394 317.837 127.117C313.118 135.273 314.002 148.896 314.002 148.896L295.256 147.489C295.256 147.489 289.874 149.624 291.213 156.04C291.941 159.532 310.544 161.149 320.814 163.567C331.084 165.986 349.622 166.689 352.534 160.803C355.446 154.917 355.134 131.189 351.689 124.415C348.244 117.641 339.742 117.394 339.742 117.394Z" fill="#68E1FD"/>
<path d="M338 116.246C338 116.246 331.5 120.972 327.457 118.11C323.414 115.247 324.389 102.895 324.389 102.895C324.389 102.895 326.456 99.1936 334.126 103.833C341.796 108.473 338 116.246 338 116.246Z" fill="#FE6162"/>
<path d="M340.6 117.9L340.431 117.604L336.349 118.838L336.271 119.035C337.74 118.628 339.183 118.245 340.6 117.9Z" fill="#7F252B"/>
<path d="M347.269 102.649C346.725 99.6879 345.237 96.9571 343.005 94.8255C339.69 91.9011 334.581 91.9258 330.499 93.1597C328.375 93.731 326.474 94.8825 325.035 96.4709C323.595 98.0593 322.679 100.014 322.4 102.093C321.503 106.758 327.249 103.882 328.523 106.548C329.254 108.094 329.489 109.811 329.199 111.483C328.77 114.26 327.028 116.937 327.288 119.8C327.309 120.495 327.512 121.174 327.88 121.775C328.249 122.377 328.769 122.881 329.394 123.243C332.934 123.552 336.5 123.494 340.028 123.07C342.784 122.873 348.348 122.65 349.336 119.467C350.493 115.666 347.269 102.649 347.269 102.649Z" fill="#7F252B"/>
<path style="mix-blend-mode:multiply" opacity="0.63" d="M439.803 243.575C450.502 236.813 461.383 230.298 472.199 223.721L456.833 213.072L397.332 236.652C404.521 240.231 414.232 246.931 424.45 253.755C429.52 250.312 434.603 246.857 439.803 243.575Z" fill="url(#paint6_linear_14_205)"/>
<path d="M478.023 186C477.935 185.651 477.771 185.323 477.542 185.038C477.122 184.552 476.622 184.136 476.06 183.804C468.507 178.954 458.042 177.634 450.06 182.36C448.24 183.446 445.523 185.901 446.602 188.221C447.226 189.566 449.124 190.356 450.502 190.899C454.874 192.537 459.44 193.664 464.1 194.255C465.79 194.526 467.506 194.798 469.209 194.946C470.387 195.054 471.575 194.878 472.663 194.436C473.751 193.994 474.704 193.3 475.436 192.416C476.658 190.936 478.569 188.085 478.023 186Z" fill="#754C24"/>
<path d="M446.394 187.135C446.394 187.135 453.284 193.058 465.192 192.194C477.1 191.331 478.023 186.025 478.023 186.025C478.023 186.025 474.942 223.487 473.317 224.128C471.692 224.77 465.608 227.558 462.67 227.768C459.732 227.978 450.45 224.449 450.216 223.474C449.982 222.499 446.394 187.135 446.394 187.135Z" fill="#68E1FD"/>
<path d="M448.565 132.534C448.201 131.831 447.07 132.448 447.447 133.151C455.598 148.748 457.184 166.307 458.653 183.359C458.718 184.137 460.018 184.149 459.953 183.359C458.471 166.072 456.82 148.341 448.565 132.534Z" fill="#007F68"/>
<path d="M447.525 132.682C447.525 132.682 449.8 140.777 447.447 144.824C445.094 148.871 443.157 149.673 445.965 154.695C448.773 159.717 456.287 160.396 456.781 164.246C457.275 168.096 453.18 139.555 447.525 132.682Z" fill="#007F68"/>
<path d="M473.589 147.292C467.312 159.753 463.774 173.297 463.19 187.098C463.19 188.061 464.737 188.048 464.776 187.098C465.327 173.559 468.772 160.268 474.903 148.032C475.397 147.181 474.019 146.428 473.589 147.292Z" fill="#007F68"/>
<path d="M474.695 151.24C474.695 150.426 474.5 148.773 474.591 147.403L473.681 147.946C470.587 155.09 465.959 171.872 464.581 177.005C466.466 173.155 474.175 172.624 476.437 167.133C477.435 164.803 477.482 162.202 476.567 159.841C475.451 157.091 474.819 154.185 474.695 151.24Z" fill="#007F68"/>
<defs>
<linearGradient id="paint0_linear_14_205" x1="149.37" y1="260.22" x2="164.279" y2="234.858" gradientUnits="userSpaceOnUse">
<stop stop-color="white" stop-opacity="0"/>
<stop offset="0.99" stop-color="#754C24"/>
</linearGradient>
<linearGradient id="paint1_linear_14_205" x1="298.441" y1="322.213" x2="322.888" y2="280.61" gradientUnits="userSpaceOnUse">
<stop stop-color="white" stop-opacity="0"/>
<stop offset="0.99" stop-color="#754C24"/>
</linearGradient>
<linearGradient id="paint2_linear_14_205" x1="252.265" y1="261.294" x2="276.807" y2="219.514" gradientUnits="userSpaceOnUse">
<stop stop-color="white" stop-opacity="0"/>
<stop offset="0.99" stop-color="#754C24"/>
</linearGradient>
<linearGradient id="paint3_linear_14_205" x1="220.259" y1="234.111" x2="238.744" y2="202.645" gradientUnits="userSpaceOnUse">
<stop stop-color="white" stop-opacity="0"/>
<stop offset="0.99" stop-color="#754C24"/>
</linearGradient>
<linearGradient id="paint4_linear_14_205" x1="157.989" y1="295.807" x2="183.652" y2="252.148" gradientUnits="userSpaceOnUse">
<stop stop-color="white" stop-opacity="0"/>
<stop offset="0.99" stop-color="#754C24"/>
</linearGradient>
<linearGradient id="paint5_linear_14_205" x1="207.129" y1="269.833" x2="232.78" y2="226.176" gradientUnits="userSpaceOnUse">
<stop stop-color="white" stop-opacity="0"/>
<stop offset="0.99" stop-color="#754C24"/>
</linearGradient>
<linearGradient id="paint6_linear_14_205" x1="427.492" y1="235.752" x2="456.861" y2="210.809" gradientUnits="userSpaceOnUse">
<stop stop-color="white" stop-opacity="0"/>
<stop offset="0.99" stop-color="#754C24"/>
</linearGradient>
</defs>
</svg>
