<svg width="447" height="542" viewBox="0 0 447 542" fill="none" xmlns="http://www.w3.org/2000/svg">
<g clip-path="url(#clip0_14_304)">
<path d="M96.1259 57.1451C81.3859 11.1523 41.6169 2.3804 -1.67416 -3.03357V457.822C37.37 504.947 68.7079 546.49 127.223 541.609C171.042 537.954 186.781 503.313 226.375 481.936C286.368 449.547 338.011 464.033 384.567 410.632C422.169 367.501 458.418 329.06 443.608 271.058C421.499 184.468 228.418 387.079 239.446 297.86C245.65 247.659 330.187 247.549 315.161 199.753C297.976 145.088 186.263 233.13 186.263 233.13C186.263 233.13 243.916 175.237 239.446 128.449C231.84 48.8471 80.2778 246.845 60.5211 169.917C48.9911 125.022 110.216 101.111 96.1259 57.1451Z" fill="#274472"/>
</g>
<defs>
<clipPath id="clip0_14_304">
<rect width="447" height="542" fill="white"/>
</clipPath>
</defs>
</svg>
