<svg width="507" height="422" viewBox="0 0 507 422" fill="none" xmlns="http://www.w3.org/2000/svg">
<path d="M107.704 69.6784C80.3364 68.9584 78.4334 108.338 51.204 111.178C2.57288 116.252 5.68524 48.7422 0.268799 -2H508V300.035C504.732 308.027 501.294 316.073 497.704 324.178C480.563 362.882 478.166 396.049 441.204 416.678C370.315 456.243 486.916 224.198 406.704 211.678C356.394 203.826 339.897 287.07 291.204 272.178C229.974 253.453 321.566 129.466 260.204 111.178C213.338 97.2111 191.58 187.776 147.704 166.178C111.103 148.162 148.485 70.7512 107.704 69.6784Z" fill="#274472"/>
</svg>
