<svg id="visual" viewBox="0 0 900 600" width="900" height="600" xmlns="http://www.w3.org/2000/svg" xmlns:xlink="http://www.w3.org/1999/xlink" version="1.1"><rect x="0" y="0" width="900" height="600" fill="#bedcf3"></rect><path d="M0 392L21.5 385.3C43 378.7 86 365.3 128.8 373.5C171.7 381.7 214.3 411.3 257.2 420.3C300 429.3 343 417.7 385.8 408.5C428.7 399.3 471.3 392.7 514.2 390C557 387.3 600 388.7 642.8 384.7C685.7 380.7 728.3 371.3 771.2 371.7C814 372 857 382 878.5 387L900 392L900 601L878.5 601C857 601 814 601 771.2 601C728.3 601 685.7 601 642.8 601C600 601 557 601 514.2 601C471.3 601 428.7 601 385.8 601C343 601 300 601 257.2 601C214.3 601 171.7 601 128.8 601C86 601 43 601 21.5 601L0 601Z" fill="#189ab4"></path><path d="M0 453L21.5 443.2C43 433.3 86 413.7 128.8 411.2C171.7 408.7 214.3 423.3 257.2 437.5C300 451.7 343 465.3 385.8 458C428.7 450.7 471.3 422.3 514.2 415.3C557 408.3 600 422.7 642.8 427.7C685.7 432.7 728.3 428.3 771.2 427.3C814 426.3 857 428.7 878.5 429.8L900 431L900 601L878.5 601C857 601 814 601 771.2 601C728.3 601 685.7 601 642.8 601C600 601 557 601 514.2 601C471.3 601 428.7 601 385.8 601C343 601 300 601 257.2 601C214.3 601 171.7 601 128.8 601C86 601 43 601 21.5 601L0 601Z" fill="#2eadbf"></path><path d="M0 470L21.5 469.8C43 469.7 86 469.3 128.8 465.5C171.7 461.7 214.3 454.3 257.2 450C300 445.7 343 444.3 385.8 452C428.7 459.7 471.3 476.3 514.2 478.7C557 481 600 469 642.8 467.8C685.7 466.7 728.3 476.3 771.2 473.8C814 471.3 857 456.7 878.5 449.3L900 442L900 601L878.5 601C857 601 814 601 771.2 601C728.3 601 685.7 601 642.8 601C600 601 557 601 514.2 601C471.3 601 428.7 601 385.8 601C343 601 300 601 257.2 601C214.3 601 171.7 601 128.8 601C86 601 43 601 21.5 601L0 601Z" fill="#44c0c9"></path><path d="M0 536L21.5 535C43 534 86 532 128.8 524.2C171.7 516.3 214.3 502.7 257.2 498.7C300 494.7 343 500.3 385.8 509C428.7 517.7 471.3 529.3 514.2 532C557 534.7 600 528.3 642.8 525C685.7 521.7 728.3 521.3 771.2 517.3C814 513.3 857 505.7 878.5 501.8L900 498L900 601L878.5 601C857 601 814 601 771.2 601C728.3 601 685.7 601 642.8 601C600 601 557 601 514.2 601C471.3 601 428.7 601 385.8 601C343 601 300 601 257.2 601C214.3 601 171.7 601 128.8 601C86 601 43 601 21.5 601L0 601Z" fill="#5cd3d2"></path><path d="M0 544L21.5 545C43 546 86 548 128.8 549.2C171.7 550.3 214.3 550.7 257.2 550.5C300 550.3 343 549.7 385.8 548.8C428.7 548 471.3 547 514.2 551C557 555 600 564 642.8 563.3C685.7 562.7 728.3 552.3 771.2 545.2C814 538 857 534 878.5 532L900 530L900 601L878.5 601C857 601 814 601 771.2 601C728.3 601 685.7 601 642.8 601C600 601 557 601 514.2 601C471.3 601 428.7 601 385.8 601C343 601 300 601 257.2 601C214.3 601 171.7 601 128.8 601C86 601 43 601 21.5 601L0 601Z" fill="#75e6da"></path></svg>