<svg width="480" height="351" viewBox="0 0 480 351" fill="none" xmlns="http://www.w3.org/2000/svg">
<path d="M49.5 11.5C87.5 5 87.3734 26.7351 113 29.5C137.693 32.1641 153.229 34.6763 176.5 26C191.279 20.4898 196.07 10.0879 211 5C244.426 -6.39141 264.694 21.732 300 21C331.662 20.3436 348.207 0.135023 379.5 5C402.911 8.63952 417.765 13.2433 435 29.5C452.914 46.3972 457.278 62.0485 463 86C474.358 133.545 425.21 160.108 435 208C440.285 233.855 473.834 245.437 463 269.5C455.24 286.735 433.803 280.851 422.5 296C410.292 312.362 451 346.5 409 346.5C367 346.5 369.398 336.629 343.5 336C312.967 335.258 296.536 345.889 266 346.5C236.201 347.097 219.803 339.135 190 339.5C163.694 339.822 148.664 352.283 123 346.5C105.278 342.507 97.0074 335.09 81 326.5C56.3237 313.258 34.7594 312.103 20.5 288C-4.44246 245.839 78.5 174.5 67 171.5C55.5 168.5 42 138 42 138C42 138 11.5 18 49.5 11.5Z" fill="#189AB4"/>
<path d="M419.067 34.3267H94.5736C90.0233 34.3267 86.3346 38.0154 86.3346 42.5656V244.488C86.3346 249.038 90.0233 252.727 94.5736 252.727H419.067C423.618 252.727 427.306 249.038 427.306 244.488V42.5656C427.306 38.0154 423.618 34.3267 419.067 34.3267Z" fill="#68E1FD"/>
<path d="M420.559 268.671C420.31 275.824 418.672 283.105 414.667 289.034C409.623 296.499 401.43 301.12 393.495 305.465L370.996 317.847C361.137 323.278 350.744 328.838 339.504 328.995C331.551 329.114 323.855 326.491 316.205 324.291C280.479 313.981 242.847 312.535 205.914 315.14C186.997 316.475 168.172 318.823 149.429 321.649C134.433 323.876 116.437 331.287 102.914 322.514C88.1849 312.94 79.1451 297.438 70.8234 282.387C63.5786 269.325 56.2327 255.94 53.8392 241.202C50.157 218.427 58.9759 195.036 72.7749 176.533C76.9248 171.007 81.4557 165.778 86.3346 160.884V244.497C86.3346 246.687 87.2012 248.787 88.7449 250.34C90.2887 251.892 92.3842 252.77 94.5736 252.782H419.058C420.213 257.996 420.717 263.333 420.559 268.671Z" fill="#68E1FD"/>
<path d="M299.322 34.3359H212.56C215.826 31.8529 219.373 29.7642 223.128 28.113C229.986 25.1212 237.461 23.7864 244.918 23.2525C263.679 21.8993 282.495 26.0417 299.322 34.3359Z" fill="#68E1FD"/>
<path d="M219.934 225.24C220.78 226.36 221.795 227.342 222.944 228.148C224.653 229.07 226.533 229.628 228.468 229.787L257.852 234.215C258.144 234.235 258.426 234.33 258.671 234.491C258.834 234.668 258.957 234.878 259.032 235.107C259.106 235.335 259.131 235.578 259.103 235.817C259.24 241.318 258.497 246.806 256.903 252.074C256.82 252.504 256.612 252.901 256.305 253.215C255.909 253.483 255.44 253.625 254.961 253.62C245.074 254.458 235.142 254.191 225.227 253.924C223.56 253.947 221.897 253.765 220.275 253.381C217.513 252.607 215.258 250.72 213.177 248.778C208.713 244.626 190.642 227.937 189.547 225.672C188.094 222.428 186.924 219.065 186.049 215.62C185.128 212.306 191.857 211.892 191.719 208.449C191.622 206.068 191.908 203.687 192.566 201.397C193.056 199.355 194.071 197.476 195.512 195.948C196.524 195.027 194.96 188.786 196.359 188.712C197.979 194.235 205.307 205.282 208.492 210.014C212.032 215.289 215.851 220.372 219.934 225.24Z" fill="#68E1FD"/>
<path d="M219.934 225.24C220.78 226.36 221.795 227.342 222.944 228.148C224.653 229.07 226.533 229.628 228.468 229.787L257.852 234.215C258.144 234.235 258.426 234.33 258.671 234.491C258.834 234.668 258.957 234.878 259.032 235.107C259.106 235.335 259.131 235.578 259.103 235.817C259.24 241.318 258.497 246.806 256.903 252.074C256.82 252.504 256.612 252.901 256.305 253.215C255.909 253.483 255.44 253.625 254.961 253.62C245.074 254.458 235.142 254.191 225.227 253.924C223.56 253.947 221.897 253.765 220.275 253.381C217.513 252.607 215.258 250.72 213.177 248.778C208.713 244.626 190.642 227.937 189.547 225.672C188.094 222.428 186.924 219.065 186.049 215.62C185.128 212.306 191.857 211.892 191.719 208.449C191.622 206.068 191.908 203.687 192.566 201.397C193.056 199.355 194.071 197.476 195.512 195.948C196.524 195.027 194.96 188.786 196.359 188.712C197.979 194.235 205.307 205.282 208.492 210.014C212.032 215.289 215.851 220.372 219.934 225.24Z" fill="url(#paint0_linear_1_62)"/>
<path d="M145.581 178.604C143.602 180.368 141.756 182.276 140.058 184.312C135.989 189.31 133.283 195.257 130.76 201.186C124.05 216.964 118.204 233.837 119.944 250.895C119.977 251.922 120.255 252.925 120.754 253.823C121.546 254.838 122.659 255.555 123.911 255.857C127.143 256.888 130.595 256.934 134.038 256.962C147.303 257.081 160.586 257.201 173.842 256.557C175.895 256.455 178.067 256.299 179.77 255.139C181.014 254.187 182.007 252.945 182.661 251.521C186.224 244.82 187.264 237.069 190.025 230.017C193.708 220.812 203.834 212.444 201.698 202.741C192.566 161.547 149.761 174.803 145.581 178.604Z" fill="#68E1FD"/>
<path d="M145.581 178.604C143.602 180.368 141.756 182.276 140.058 184.312C135.989 189.31 133.283 195.257 130.76 201.186C124.05 216.964 118.204 233.837 119.944 250.895C119.977 251.922 120.255 252.925 120.754 253.823C121.546 254.838 122.659 255.555 123.911 255.857C127.143 256.888 130.595 256.934 134.038 256.962C147.303 257.081 160.586 257.201 173.842 256.557C175.895 256.455 178.067 256.299 179.77 255.139C181.014 254.187 182.007 252.945 182.661 251.521C186.224 244.82 187.264 237.069 190.025 230.017C193.708 220.812 203.834 212.444 201.698 202.741C192.566 161.547 149.761 174.803 145.581 178.604Z" fill="url(#paint1_linear_1_62)"/>
<path d="M205.527 144.48C203.972 152.037 202.342 159.798 198.163 166.306C196.639 168.934 194.436 171.103 191.784 172.584C189.086 173.937 185.662 174.121 183.14 172.464C181.879 171.645 180.498 170.356 179.126 170.964C178.132 171.415 177.81 172.649 177.672 173.726C177.326 176.371 177.363 179.053 177.782 181.688C177.953 182.43 177.996 183.196 177.911 183.953C177.733 184.653 177.355 185.287 176.824 185.777C176.293 186.267 175.631 186.593 174.919 186.715C173.495 186.922 172.041 186.694 170.749 186.061C168.739 185.162 166.98 183.784 165.625 182.047C164.271 180.311 163.362 178.269 162.98 176.101C162.787 174.636 162.694 173.159 162.703 171.682C162.529 165.128 161.488 158.601 161.7 152.056C161.912 145.511 163.541 138.699 167.987 133.866C170.555 131.234 173.606 129.121 176.972 127.643C181.989 125.249 187.586 123.565 193.072 124.439C195.256 124.784 197.338 125.598 199.177 126.825C201.016 128.052 202.567 129.662 203.723 131.546C206.595 135.955 206.604 139.242 205.527 144.48Z" fill="#FFDAD2"/>
<path d="M219.234 127.827C219.608 124.755 219.038 121.642 217.599 118.903C216.16 116.163 213.921 113.926 211.18 112.491C208.74 111.275 206.025 110.76 203.392 110.06C197.224 108.403 191.305 105.66 184.981 105.071C178.657 104.482 171.384 106.7 168.567 112.435C168.052 113.485 167.546 114.755 166.413 115.031C165.795 115.098 165.169 115.042 164.572 114.866C160.347 114.12 156.545 117.729 154.639 121.567C151.565 127.781 151.408 135.026 152.08 141.921C152.697 148.3 154.326 155.195 159.445 159.08C159.951 159.466 160.697 159.816 161.185 159.402C161.408 159.168 161.547 158.867 161.58 158.546C162.095 156.127 162.287 153.651 162.151 151.181C162.05 149.34 161.755 147.389 162.234 145.575C162.713 143.762 164.25 142.04 166.128 142.095C167.868 142.095 169.267 143.716 169.7 145.409C170.008 147.134 169.942 148.905 169.506 150.601C169.782 151.292 170.749 150.463 170.915 149.745C172.185 143.964 172.47 137.493 176.484 133.175C177.301 134.02 177.895 135.055 178.215 136.186C178.815 135.564 179.578 135.124 180.416 134.916C181.254 134.707 182.134 134.739 182.956 135.007C184.12 135.514 185.191 136.214 186.122 137.078C195.898 144.71 217.182 142.445 219.234 127.827Z" fill="#3F3D56"/>
<path d="M148.398 188.031C145.305 190.277 143.795 194.226 143.703 198.037C143.611 201.848 147.643 226.031 151.445 232.898C154.391 238.238 160.531 252.175 169.856 256.023C172.618 257.164 213.444 256.686 232.389 254.633C232.269 250.15 232.048 245.667 231.754 241.183C231.782 240.592 231.603 240.009 231.248 239.536C230.769 239.039 230.088 235.789 229.407 235.789C218.36 235.835 207.221 239.213 196.175 239.471C194.57 239.575 192.959 239.479 191.379 239.186C190.085 238.863 188.844 238.355 187.696 237.676C179.172 232.852 174.459 223.38 171.127 214.165C168.577 207.059 166.524 199.703 162.842 193.066C161.534 190.701 160.365 188.399 157.788 187.359C154.759 186.135 151.206 185.996 148.398 188.031Z" fill="#68E1FD"/>
<path d="M148.398 188.031C145.305 190.277 143.795 194.226 143.703 198.037C143.611 201.848 147.643 226.031 151.445 232.898C154.391 238.238 160.531 252.175 169.856 256.023C172.618 257.164 213.444 256.686 232.389 254.633C232.269 250.15 232.048 245.667 231.754 241.183C231.782 240.592 231.603 240.009 231.248 239.536C230.769 239.039 230.088 235.789 229.407 235.789C218.36 235.835 207.221 239.213 196.175 239.471C194.57 239.575 192.959 239.479 191.379 239.186C190.085 238.863 188.844 238.355 187.696 237.676C179.172 232.852 174.459 223.38 171.127 214.165C168.577 207.059 166.524 199.703 162.842 193.066C161.534 190.701 160.365 188.399 157.788 187.359C154.759 186.135 151.206 185.996 148.398 188.031Z" fill="url(#paint2_linear_1_62)"/>
<path d="M230.769 234.924C236.504 234.381 242.874 235.66 246.51 240.125C246.893 240.532 247.144 241.045 247.228 241.598C247.225 242.095 247.071 242.579 246.786 242.988C244.642 246.55 239.984 247.397 236.071 248.806C234.036 249.535 232.093 250.499 230.281 251.678C229.261 252.487 228.082 253.07 226.82 253.39C224.058 253.804 221.766 251.337 220.514 248.87C219.078 246.108 216.832 240.438 219.593 237.823C221.849 235.752 227.934 235.181 230.769 234.924Z" fill="#FFDAD2"/>
<path d="M278.26 233.506C279.281 234.087 280.159 234.889 280.828 235.853C281.155 236.342 281.35 236.906 281.391 237.493C281.433 238.079 281.322 238.665 281.068 239.195C280.634 239.847 280.041 240.379 279.346 240.742C274.256 243.77 268.014 244.313 262.859 247.185C261.802 247.954 260.589 248.482 259.306 248.732C258.552 248.749 257.804 248.591 257.121 248.272C256.438 247.952 255.837 247.48 255.366 246.891C254.427 245.719 253.707 244.387 253.24 242.96C247.21 227.127 269.589 227.983 278.26 233.506Z" fill="#FFDAD2"/>
<path d="M132.381 226.436H156.232V246.026C156.232 247.857 155.505 249.613 154.21 250.908C152.915 252.202 151.159 252.93 149.328 252.93H139.285C137.454 252.93 135.697 252.202 134.403 250.908C133.108 249.613 132.381 247.857 132.381 246.026V226.436Z" fill="white"/>
<path d="M422.75 252.506H99.655C96.8283 252.506 94.5367 254.796 94.5367 257.62C94.5367 260.444 96.8283 262.734 99.655 262.734H422.75C425.576 262.734 427.868 260.444 427.868 257.62C427.868 254.796 425.576 252.506 422.75 252.506Z" fill="#68E1FD"/>
<path d="M363.356 262.89H180.728V326.233H363.356V262.89Z" fill="#68E1FD"/>
<path d="M181.971 262.89H110.232V326.233H181.971V262.89Z" fill="#68E1FD"/>
<path d="M363.365 262.89H181.934V326.233H363.365V262.89Z" fill="url(#paint3_linear_1_62)"/>
<path d="M181.971 262.89H110.232V326.233H181.971V262.89Z" fill="url(#paint4_linear_1_62)"/>
<path d="M427.297 42.5748V82.8949H86.3346V42.5748C86.3346 40.3855 87.2012 38.2851 88.7449 36.7327C90.2887 35.1803 92.3842 34.302 94.5736 34.2899H419.058C421.248 34.302 423.343 35.1803 424.887 36.7327C426.431 38.2851 427.297 40.3855 427.297 42.5748Z" fill="#68E1FD"/>
<path d="M233.503 252.331H351.738C355.053 252.331 357.74 249.644 357.74 246.329C357.74 243.015 355.053 240.327 351.738 240.327H233.503C230.188 240.327 227.501 243.015 227.501 246.329C227.501 249.644 230.188 252.331 233.503 252.331Z" fill="#68E1FD"/>
<path d="M233.503 252.331H351.738C355.053 252.331 357.74 249.644 357.74 246.329C357.74 243.015 355.053 240.327 351.738 240.327H233.503C230.188 240.327 227.501 243.015 227.501 246.329C227.501 249.644 230.188 252.331 233.503 252.331Z" fill="url(#paint5_linear_1_62)"/>
<path d="M274.504 252.35H365.243L389.177 191.658C389.495 190.849 389.61 189.975 389.513 189.111C389.416 188.248 389.11 187.421 388.621 186.702C388.132 185.984 387.476 185.396 386.708 184.989C385.94 184.582 385.084 184.368 384.215 184.367H313.011C309.566 184.374 306.203 185.414 303.357 187.354C300.511 189.294 298.313 192.044 297.049 195.248L274.504 252.35Z" fill="#68E1FD"/>
<path d="M279.116 252.414H365.298L388.026 194.76C388.33 193.992 388.441 193.161 388.349 192.341C388.258 191.52 387.967 190.734 387.502 190.051C387.038 189.369 386.413 188.81 385.683 188.424C384.953 188.038 384.139 187.837 383.313 187.838H315.69C312.414 187.836 309.213 188.82 306.504 190.662C303.795 192.504 301.703 195.119 300.501 198.166L279.116 252.414Z" fill="#68E1FD"/>
<path d="M279.116 252.414H365.298L388.026 194.76C388.33 193.992 388.441 193.161 388.349 192.341C388.258 191.52 387.967 190.734 387.502 190.051C387.038 189.369 386.413 188.81 385.683 188.424C384.953 188.038 384.139 187.837 383.313 187.838H315.69C312.414 187.836 309.213 188.82 306.504 190.662C303.795 192.504 301.703 195.119 300.501 198.166L279.116 252.414Z" fill="url(#paint6_linear_1_62)"/>
<path d="M376.685 165.321H249.097V172.501H376.685V165.321Z" fill="white"/>
<path d="M339.799 153.032H249.097V160.212H339.799V153.032Z" fill="white"/>
<path d="M412.918 153.032H352.199V160.212H412.918V153.032Z" fill="white"/>
<path d="M412.706 107.575H319.353V113.954H412.706V107.575Z" fill="white"/>
<path d="M399.671 118.907H299.801V125.286H399.671V118.907Z" fill="white"/>
<path d="M312.228 107.575H250.828V113.954H312.228V107.575Z" fill="white"/>
<path d="M412.706 129.898H277.763V136.278H412.706V129.898Z" fill="white"/>
<path d="M270.638 129.898H250.828V136.278H270.638V129.898Z" fill="white"/>
<path d="M412.706 141.23H323.634V147.61H412.706V141.23Z" fill="white"/>
<path d="M312.228 141.23H250.828V147.61H312.228V141.23Z" fill="white"/>
<path d="M290.31 118.64H250.828V125.019H290.31V118.64Z" fill="white"/>
<path d="M378.563 86.0984H285.21V92.4778H378.563V86.0984Z" fill="white"/>
<path d="M365.528 97.4304H265.658V103.81H365.528V97.4304Z" fill="white"/>
<path d="M278.094 86.0984H216.694V92.4778H278.094V86.0984Z" fill="white"/>
<path d="M377.735 72.8885H284.382V79.2679H377.735V72.8885Z" fill="white"/>
<path d="M277.266 60.903H215.865V67.2824H277.266V60.903Z" fill="white"/>
<path d="M277.266 49.9668H215.865V56.3462H277.266V49.9668Z" fill="white"/>
<path d="M256.176 97.1634H216.694V103.543H256.176V97.1634Z" fill="white"/>
<defs>
<linearGradient id="paint0_linear_1_62" x1="77.123" y1="142.732" x2="308.23" y2="239.296" gradientUnits="userSpaceOnUse">
<stop offset="0.01"/>
<stop offset="0.12" stop-opacity="0.75"/>
<stop offset="1" stop-opacity="0"/>
</linearGradient>
<linearGradient id="paint1_linear_1_62" x1="269.406" y1="359.41" x2="227.613" y2="46.2746" gradientUnits="userSpaceOnUse">
<stop offset="0.01"/>
<stop offset="0.12" stop-opacity="0.75"/>
<stop offset="1" stop-opacity="0"/>
</linearGradient>
<linearGradient id="paint2_linear_1_62" x1="173.395" y1="346.513" x2="276.355" y2="121.952" gradientUnits="userSpaceOnUse">
<stop offset="0.01"/>
<stop offset="0.12" stop-opacity="0.75"/>
<stop offset="1" stop-opacity="0"/>
</linearGradient>
<linearGradient id="paint3_linear_1_62" x1="286.796" y1="-188.233" x2="-41.5711" y2="283.655" gradientUnits="userSpaceOnUse">
<stop offset="0.01"/>
<stop offset="0.12" stop-opacity="0.75"/>
<stop offset="1" stop-opacity="0"/>
</linearGradient>
<linearGradient id="paint4_linear_1_62" x1="164.311" y1="-157.726" x2="336.895" y2="727.592" gradientUnits="userSpaceOnUse">
<stop offset="0.01"/>
<stop offset="0.12" stop-opacity="0.75"/>
<stop offset="1" stop-opacity="0"/>
</linearGradient>
<linearGradient id="paint5_linear_1_62" x1="241.149" y1="-121.082" x2="122.834" y2="495.254" gradientUnits="userSpaceOnUse">
<stop offset="0.01"/>
<stop offset="0.12" stop-opacity="0.75"/>
<stop offset="1" stop-opacity="0"/>
</linearGradient>
<linearGradient id="paint6_linear_1_62" x1="233.558" y1="428.759" x2="257.863" y2="-16.8065" gradientUnits="userSpaceOnUse">
<stop offset="0.01"/>
<stop offset="0.12" stop-opacity="0.75"/>
<stop offset="1" stop-opacity="0"/>
</linearGradient>
</defs>
</svg>
