<svg id="visual" viewBox="0 0 900 600" width="900" height="600" xmlns="http://www.w3.org/2000/svg" xmlns:xlink="http://www.w3.org/1999/xlink" version="1.1"><path d="M0 109L15 119C30 129 60 149 90 147C120 145 150 121 180 119C210 117 240 137 270 144C300 151 330 145 360 142C390 139 420 139 450 135C480 131 510 123 540 126C570 129 600 143 630 140C660 137 690 117 720 111C750 105 780 113 810 116C840 119 870 117 885 116L900 115L900 0L885 0C870 0 840 0 810 0C780 0 750 0 720 0C690 0 660 0 630 0C600 0 570 0 540 0C510 0 480 0 450 0C420 0 390 0 360 0C330 0 300 0 270 0C240 0 210 0 180 0C150 0 120 0 90 0C60 0 30 0 15 0L0 0Z" fill="#d4e7f7"></path><path d="M0 163L15 171C30 179 60 195 90 191C120 187 150 163 180 161C210 159 240 179 270 185C300 191 330 183 360 183C390 183 420 191 450 187C480 183 510 167 540 166C570 165 600 179 630 180C660 181 690 169 720 167C750 165 780 173 810 173C840 173 870 165 885 161L900 157L900 113L885 114C870 115 840 117 810 114C780 111 750 103 720 109C690 115 660 135 630 138C600 141 570 127 540 124C510 121 480 129 450 133C420 137 390 137 360 140C330 143 300 149 270 142C240 135 210 115 180 117C150 119 120 143 90 145C60 147 30 127 15 117L0 107Z" fill="#c2def4"></path><path d="M0 205L15 215C30 225 60 245 90 239C120 233 150 201 180 197C210 193 240 217 270 223C300 229 330 217 360 218C390 219 420 233 450 229C480 225 510 203 540 200C570 197 600 213 630 217C660 221 690 213 720 210C750 207 780 209 810 210C840 211 870 211 885 211L900 211L900 155L885 159C870 163 840 171 810 171C780 171 750 163 720 165C690 167 660 179 630 178C600 177 570 163 540 164C510 165 480 181 450 185C420 189 390 181 360 181C330 181 300 189 270 183C240 177 210 157 180 159C150 161 120 185 90 189C60 193 30 177 15 169L0 161Z" fill="#aed3f0"></path><path d="M0 295L15 308C30 321 60 347 90 339C120 331 150 289 180 286C210 283 240 319 270 329C300 339 330 323 360 318C390 313 420 319 450 314C480 309 510 293 540 292C570 291 600 305 630 313C660 321 690 323 720 317C750 311 780 297 810 296C840 295 870 307 885 313L900 319L900 209L885 209C870 209 840 209 810 208C780 207 750 205 720 208C690 211 660 219 630 215C600 211 570 195 540 198C510 201 480 223 450 227C420 231 390 217 360 216C330 215 300 227 270 221C240 215 210 191 180 195C150 199 120 231 90 237C60 243 30 223 15 213L0 203Z" fill="#a6cfef"></path><path d="M0 451L15 455C30 459 60 467 90 465C120 463 150 451 180 451C210 451 240 463 270 471C300 479 330 483 360 484C390 485 420 483 450 477C480 471 510 461 540 459C570 457 600 463 630 473C660 483 690 497 720 496C750 495 780 479 810 475C840 471 870 479 885 483L900 487L900 317L885 311C870 305 840 293 810 294C780 295 750 309 720 315C690 321 660 319 630 311C600 303 570 289 540 290C510 291 480 307 450 312C420 317 390 311 360 316C330 321 300 337 270 327C240 317 210 281 180 284C150 287 120 329 90 337C60 345 30 319 15 306L0 293Z" fill="#aed3f0"></path><path d="M0 541L15 544C30 547 60 553 90 550C120 547 150 535 180 530C210 525 240 527 270 531C300 535 330 541 360 541C390 541 420 535 450 533C480 531 510 533 540 537C570 541 600 547 630 551C660 555 690 557 720 554C750 551 780 543 810 541C840 539 870 543 885 545L900 547L900 485L885 481C870 477 840 469 810 473C780 477 750 493 720 494C690 495 660 481 630 471C600 461 570 455 540 457C510 459 480 469 450 475C420 481 390 483 360 482C330 481 300 477 270 469C240 461 210 449 180 449C150 449 120 461 90 463C60 465 30 457 15 453L0 449Z" fill="#c2def4"></path><path d="M0 601L15 601C30 601 60 601 90 601C120 601 150 601 180 601C210 601 240 601 270 601C300 601 330 601 360 601C390 601 420 601 450 601C480 601 510 601 540 601C570 601 600 601 630 601C660 601 690 601 720 601C750 601 780 601 810 601C840 601 870 601 885 601L900 601L900 545L885 543C870 541 840 537 810 539C780 541 750 549 720 552C690 555 660 553 630 549C600 545 570 539 540 535C510 531 480 529 450 531C420 533 390 539 360 539C330 539 300 533 270 529C240 525 210 523 180 528C150 533 120 545 90 548C60 551 30 545 15 542L0 539Z" fill="#d4e7f7"></path></svg>